<svg width="232" height="28" viewBox="0 0 232 28" fill="none" xmlns="http://www.w3.org/2000/svg">
<path d="M137.83 12.9057C137.83 14.4735 138.104 15.52 138.653 16.0455C139.201 16.5709 140.275 16.8336 141.876 16.8336H147.351V20.0401C145.247 20.4855 142.901 20.7082 140.312 20.7082C139.376 20.7082 138.554 20.6368 137.843 20.4944C137.133 20.3518 136.441 20.0714 135.767 19.6525C135.092 19.2341 134.54 18.6774 134.108 17.9825C133.677 17.288 133.33 16.3706 133.07 15.2304C132.809 14.0903 132.679 12.7453 132.679 11.1956C132.679 9.39645 132.822 7.84222 133.11 6.53292C133.398 5.22361 133.771 4.18166 134.229 3.4066C134.688 2.63178 135.286 2.01718 136.023 1.56305C136.76 1.10868 137.511 0.805846 138.275 0.654314C139.039 0.503012 139.934 0.427246 140.959 0.427246C142.972 0.427246 145.031 0.614485 147.135 0.988508V4.24827H141.957C140.356 4.24827 139.269 4.56003 138.693 5.18355C138.118 5.80685 137.83 6.92022 137.83 8.52343V12.9057Z" fill="#EE3124"/>
<path d="M186.729 20.1476V0.907184C189.372 0.587144 192.042 0.427124 194.739 0.427124C201.266 0.427124 204.529 3.7983 204.529 10.5409C204.529 11.5549 204.448 12.5066 204.287 13.3961C204.125 14.2858 203.824 15.1929 203.383 16.1183C202.942 17.0432 202.371 17.8305 201.67 18.4797C200.969 19.1292 200.025 19.6629 198.838 20.0808C197.652 20.4989 196.294 20.7081 194.766 20.7081C191.907 20.7081 189.228 20.5211 186.729 20.1476ZM191.691 4.32293V16.8386H195.009C196.555 16.8386 197.679 16.3761 198.38 15.451C199.081 14.5258 199.432 12.9247 199.432 10.6474C199.432 8.95758 199.252 7.64084 198.892 6.69809C198.533 5.75534 198.038 5.12349 197.409 4.80345C196.78 4.48318 195.926 4.32293 194.847 4.32293H191.691Z" fill="#EE3124"/>
<path d="M207.766 20.7081V0.427124H212.674V20.7081H207.766Z" fill="#EE3124"/>
<path d="M225.351 4.34018V20.7081H220.442V4.34018H214.778V0.427124H231.015V4.34018H225.351Z" fill="#EE3124"/>
<path d="M183.421 4.34018H174.204V8.28062H182.856C183.184 9.5885 183.185 10.895 182.856 12.2H174.204V16.7951H183.421C183.677 18.1115 183.682 19.4161 183.421 20.7081H169.506V0.427124H183.421C183.679 1.73148 183.679 3.03583 183.421 4.34018Z" fill="#EE3124"/>
<path d="M166.137 6.85803C165.816 3.40892 162.879 0.427124 157.855 0.427124C152.831 0.427124 150.566 1.86897 150.566 1.86897V20.7081H155.246V19.364V14.7158C156.539 14.9414 157.682 15.0465 158.695 15.0518L160.503 20.7081H165.183L163.089 14.1596C166.148 12.5608 166.352 9.16072 166.137 6.85803ZM155.246 11.0987V4.40507C155.246 4.40507 156.985 3.78144 159.015 4.15562C161.044 4.5298 161.479 6.50547 161.479 7.98057C161.479 9.45567 160.878 11.0023 158.849 11.2517C157.328 11.438 155.246 11.0987 155.246 11.0987Z" fill="#EE3124"/>
<path d="M29.2447 14.1494V20.7081H24.363V14.2037L17.1348 0.594386C18.8092 0.370472 20.4904 0.372273 22.1784 0.594386L26.6286 10.0499L26.7904 10.0773L31.2137 0.594386C32.8653 0.372244 34.5105 0.370498 36.1493 0.594386L29.2447 14.1494Z" fill="#EE3124"/>
<path d="M75.2041 20.3562V0.427124H80.1128V20.3562H75.2041Z" fill="#EE3124"/>
<path d="M96.5511 12.7005C96.596 12.6917 96.6276 12.687 96.6455 12.687V0.691818C98.2189 0.33691 99.8013 0.340881 101.392 0.691818V20.6209H96.7264L88.5811 8.4088L88.4463 8.48999V20.6209H83.6455V0.691818C85.2397 0.339547 86.8309 0.338244 88.4193 0.691818L96.4567 12.7142C96.4747 12.7142 96.5061 12.7097 96.5511 12.7005Z" fill="#EE3124"/>
<path d="M47.4233 16.8089H40.0872L38.7925 20.7081H33.749L40.8424 0.779037C42.7023 0.309954 44.6711 0.309686 46.7491 0.779037L53.7345 20.7081H48.7179L47.4233 16.8089ZM43.6204 5.32818L41.1121 13.2347H46.3175L43.8092 5.32818H43.6204Z" fill="#EE3124"/>
<path d="M117.008 16.8089H109.672L108.377 20.7081H103.334L110.427 0.779037C112.287 0.309954 114.256 0.309686 116.334 0.779037L123.319 20.7081H118.303L117.008 16.8089ZM113.205 5.32818L110.697 13.2347H115.902L113.394 5.32818H113.205Z" fill="#EE3124"/>
<path d="M69.6857 10.5676C71.3475 9.16251 71.45 7.05565 71.2826 5.54357C70.9796 2.79946 68.2104 0.427124 63.473 0.427124C58.7357 0.427124 56.6006 1.57425 56.6006 1.57425V6.79268V14.3426V19.561C56.6006 19.561 58.7357 20.7081 63.473 20.7081C68.2104 20.7081 70.9796 18.3358 71.2826 15.5917C71.45 14.0796 71.3475 11.9727 69.6857 10.5676ZM61.013 3.592C61.013 3.592 62.653 3.09583 64.5664 3.39353C66.4797 3.69123 66.8905 5.26308 66.8905 6.43668C66.8905 7.61027 66.3235 8.84075 64.4102 9.03922C62.9764 9.18742 61.013 8.91751 61.013 8.91751V6.79268V3.592ZM64.5664 17.7417C62.653 18.0394 61.013 17.5433 61.013 17.5433V14.3426V12.2177C61.013 12.2177 62.9764 11.9478 64.4102 12.096C66.3235 12.2945 66.8905 13.525 66.8905 14.6986C66.8905 15.8722 66.4797 17.444 64.5664 17.7417Z" fill="#EE3124"/>
<path d="M16.5564 6.85803C16.235 3.40892 13.298 0.427124 8.27391 0.427124C3.24977 0.427124 0.985352 1.86897 0.985352 1.86897V20.7081H5.66494V19.364V14.7158C6.95779 14.9414 8.1014 15.0465 9.11389 15.0518L10.9222 20.7081H15.6018L13.5082 14.1596C16.5664 12.5608 16.7714 9.16072 16.5564 6.85803ZM5.66494 11.0987V4.40507C5.66494 4.40507 7.40426 3.78144 9.43345 4.15562C11.4627 4.5298 11.8983 6.50547 11.8983 7.98057C11.8983 9.45567 11.297 11.0023 9.26781 11.2517C7.74715 11.438 5.66494 11.0987 5.66494 11.0987Z" fill="#EE3124"/>
<path d="M16.6169 24.2803H0.984375V27.5729H16.6169V24.2803Z" fill="#EE3124"/>
</svg>
