<svg width="17" height="22" viewBox="0 0 17 22" fill="none" xmlns="http://www.w3.org/2000/svg">
<path d="M8.4154 10.5767C10.8293 10.5767 12.7862 8.29547 12.7862 5.48143C12.7862 2.66732 12.1437 0.386108 8.4154 0.386108C4.68707 0.386108 4.04443 2.66732 4.04443 5.48143C4.04443 8.29547 6.00143 10.5767 8.4154 10.5767Z" fill="#C8C8C8"/>
<path d="M0.158468 18.3568C0.157816 18.1846 0.157163 18.3083 0.158468 18.3568V18.3568Z" fill="#C8C8C8"/>
<path d="M16.6699 18.4912C16.672 18.4441 16.6706 18.1643 16.6699 18.4912V18.4912Z" fill="#C8C8C8"/>
<path d="M16.6604 18.1509C16.5795 13.2487 15.9124 11.8519 10.8078 10.9677C10.8078 10.9677 10.0892 11.8464 8.41437 11.8464C6.73955 11.8464 6.02087 10.9677 6.02087 10.9677C0.971909 11.8422 0.264267 13.2183 0.171222 17.9916C0.163592 18.3814 0.160056 18.4019 0.158691 18.3566C0.159002 18.4414 0.159374 18.5982 0.159374 18.8717C0.159374 18.8717 1.37467 21.223 8.41437 21.223C15.4539 21.223 16.6694 18.8717 16.6694 18.8717C16.6694 18.696 16.6695 18.5738 16.6697 18.4907C16.6683 18.5187 16.6656 18.4644 16.6604 18.1509Z" fill="#C8C8C8"/>
</svg>
