<svg width="17" height="23" viewBox="0 0 17 23" fill="none" xmlns="http://www.w3.org/2000/svg">
<path d="M13.752 9.69858C13.8542 9.42167 13.9291 9.17081 13.9777 8.98369C14.0905 8.56969 14.6176 6.46955 13.8927 5.69434C13.5428 5.31804 13.0714 5.25156 12.6544 5.19124C12.6179 5.18575 12.5844 5.18027 12.5501 5.17547C13.2186 3.72032 13.7092 1.723 13.0114 0.794933C11.7717 -0.851454 9.69843 2.72509 8.74574 2.35838C7.79161 1.99305 5.76196 0.08552 4.41861 0.861419C3.63589 1.31517 4.23436 3.49893 4.98923 5.08363L1.93974 5.04044L1.84476 5.36945C1.82691 5.42839 1.42197 6.81226 1.42197 8.24617C1.42197 9.69036 1.83333 10.8645 1.8519 10.9145L1.95617 11.2079L2.79603 11.225C1.63122 13.0558 0.671387 15.1052 0.671387 16.3013C0.671387 20.2157 4.26578 22.2926 8.70146 22.2926C13.1371 22.2926 16.7315 20.2157 16.7315 16.3013C16.7315 14.7707 15.2604 11.8193 13.752 9.69858ZM2.34682 8.24617C2.34682 7.33182 2.53536 6.41335 2.64891 5.93972L6.57182 5.99455L6.6918 5.71764C6.69751 5.70393 7.24528 4.47154 8.42722 4.27483C9.21637 4.14254 9.68701 4.48662 10.3676 5.00686C10.6647 5.23579 11.0025 5.49282 11.4081 5.73409C10.2133 6.08366 8.91856 5.89174 8.90071 5.88831L8.79573 6.52165C8.83358 6.52713 9.22851 6.58607 9.7927 6.58607C10.5162 6.58607 11.506 6.48463 12.3616 6.04665C12.4137 6.05487 12.4665 6.06241 12.5194 6.07064C12.8665 6.11999 13.0857 6.15769 13.2071 6.28586C13.3828 6.47572 13.4414 7.4641 13.0893 8.75955C12.7422 10.0351 12.158 11.0043 11.6402 11.1743C11.4467 11.236 11.1753 11.2682 10.8247 11.2682C9.03212 11.2682 6.11261 10.4286 6.08333 10.421L6.02334 10.4039L2.64105 10.3353C2.52536 9.92477 2.34682 9.13516 2.34682 8.24617ZM10.9832 17.9607C10.8925 18.1499 10.764 18.3178 10.6054 18.4617C10.4433 18.605 10.2526 18.7215 10.0305 18.8085C9.8077 18.8983 9.56917 18.9504 9.30921 18.9655V19.4892H8.0987V18.8092C8.03443 18.7825 7.97301 18.7558 7.91302 18.7304C7.85303 18.7071 7.79304 18.6817 7.73591 18.6536V18.9107H6.52825V17.169H7.73591C7.83946 17.2801 7.9423 17.376 8.043 17.4555C8.1437 17.5357 8.24654 17.6022 8.35295 17.655C8.46007 17.7071 8.57862 17.7468 8.7086 17.7701C8.83858 17.7955 8.98641 17.8085 9.1521 17.8085C9.37206 17.8085 9.55346 17.766 9.69843 17.6797C9.84127 17.594 9.91482 17.4829 9.91482 17.3459C9.91482 17.2286 9.87555 17.1293 9.8027 17.0436C9.72843 16.9579 9.6313 16.8846 9.51275 16.8242C9.39563 16.7626 9.26565 16.7146 9.12353 16.6782C8.98355 16.6419 8.84429 16.6124 8.70646 16.5926C8.21654 16.5206 7.82518 16.4075 7.53166 16.2615C7.23742 16.1107 7.01103 15.949 6.85249 15.7707C6.69466 15.5939 6.59039 15.4136 6.54111 15.2286C6.49255 15.0428 6.46827 14.879 6.46827 14.7344C6.46827 14.524 6.50897 14.3259 6.58967 14.1374C6.66895 13.9516 6.78321 13.7823 6.93033 13.6377C7.07745 13.4931 7.24956 13.367 7.4481 13.2724C7.64735 13.1744 7.86517 13.1127 8.10085 13.0784V12.5321H9.30993V13.1613C9.48847 13.2107 9.64916 13.2779 9.7927 13.3608V13.1127H11.0018V14.853H9.78556C9.68629 14.7495 9.59202 14.6562 9.4999 14.5767C9.40777 14.4965 9.30993 14.4287 9.20852 14.3773C9.10425 14.3252 8.98998 14.2841 8.86643 14.256C8.74217 14.2292 8.59719 14.2135 8.4315 14.2135C8.18869 14.2135 8.00301 14.2683 7.87374 14.3793C7.74376 14.4876 7.6802 14.6096 7.6802 14.7358C7.6802 15.0942 8.08299 15.3328 8.88928 15.4493C9.38849 15.5213 9.79056 15.6378 10.0862 15.8023C10.3805 15.9654 10.6076 16.1422 10.7625 16.3314C10.9204 16.5213 11.0161 16.7111 11.0596 16.8948C11.1039 17.0806 11.1268 17.2293 11.1268 17.3465C11.1232 17.5645 11.0768 17.7667 10.9832 17.9607Z" fill="#C8C8C8"/>
</svg>
