<svg width="16" height="15" viewBox="0 0 16 15" fill="none" xmlns="http://www.w3.org/2000/svg">
<path d="M12.4952 8.28418C10.713 8.28418 9.26318 9.67569 9.26318 11.3861C9.26318 13.0965 10.713 14.4881 12.4952 14.4882C14.2773 14.4881 15.7272 13.0965 15.7272 11.3861C15.7272 9.67569 14.2773 8.28418 12.4952 8.28418ZM12.4952 12.2809C11.9802 12.2809 11.5628 11.8803 11.5628 11.3861C11.5628 10.892 11.9803 10.4914 12.4952 10.4914C13.0102 10.4914 13.4276 10.892 13.4276 11.3861C13.4274 11.8803 13.0099 12.2809 12.4952 12.2809Z" fill="#C8C8C8"/>
<path d="M4.10603 6.43541C5.88818 6.4353 7.33803 5.0438 7.33803 3.33337C7.33803 2.50487 7.00189 1.72585 6.39137 1.14001C5.78096 0.55406 4.96928 0.231445 4.10603 0.231445C4.10591 0.231445 4.10591 0.231445 4.10591 0.231445C3.24266 0.231445 2.43098 0.55406 1.82057 1.14001C1.21017 1.72585 0.874023 2.50487 0.874023 3.33337C0.874023 5.0438 2.32388 6.4353 4.10603 6.43541ZM4.10603 2.43862C4.6209 2.43862 5.0383 2.83923 5.0383 3.33337C5.0383 3.82752 4.6209 4.22823 4.10603 4.22823C3.59116 4.22823 3.17376 3.82752 3.17376 3.33337C3.17376 2.83923 3.59116 2.43862 4.10603 2.43862Z" fill="#C8C8C8"/>
<path d="M15.729 1.54387C15.729 1.19331 15.5868 0.86373 15.3285 0.615842C15.0702 0.367953 14.7268 0.231445 14.3615 0.231445C13.9964 0.231445 13.653 0.367844 13.3945 0.615842L1.27484 12.2477C0.741721 12.7593 0.741721 13.592 1.27484 14.1038C1.53312 14.3516 1.87652 14.4883 2.2419 14.4883C2.60717 14.4883 2.95056 14.3518 3.20885 14.1038L15.3285 2.47191C15.5868 2.22402 15.729 1.89444 15.729 1.54387Z" fill="#C8C8C8"/>
</svg>
