<svg width="32" height="32" viewBox="0 0 32 32" fill="none" xmlns="http://www.w3.org/2000/svg">
<path d="M31.9401 15.9701C31.9401 24.7901 24.7901 31.9401 15.9701 31.9401C7.14999 31.9401 0 24.7901 0 15.9701C0 7.14999 7.14999 0 15.9701 0C24.7901 0 31.9401 7.14999 31.9401 15.9701Z" fill="#59D759"/>
<path d="M13.836 20.496L10.1836 16.8437C9.62499 16.285 9.62499 15.3829 10.1836 14.8242C10.7423 14.2656 11.6447 14.2656 12.2031 14.8242L14.8386 17.4597L19.909 12.3893C20.4676 11.8307 21.3698 11.8307 21.9284 12.3893C22.4871 12.948 22.4871 13.8501 21.9284 14.4088L15.8555 20.4818C15.2971 21.0547 14.3946 21.0547 13.836 20.496Z" fill="white"/>
</svg>
