<svg width="46" height="51" viewBox="0 0 46 51" fill="none" xmlns="http://www.w3.org/2000/svg">
<path d="M5.00195 5.07577C5.00195 3.23482 6.49434 1.74243 8.33529 1.74243H41.6687C43.5096 1.74243 45.002 3.23482 45.002 5.07577V38.4091L35.002 48.4092H8.33529C6.49434 48.4092 5.00195 46.9168 5.00195 45.0758V5.07577Z" fill="#FEE07D"/>
<path d="M41.6667 1.74243H39.1667C41.0076 1.74243 42.5 3.23482 42.5 5.07577V38.4091L32.5 48.4092H35L45 38.4091V5.07577C45 3.23482 43.5076 1.74243 41.6667 1.74243Z" fill="#FEE07D"/>
<path d="M21.9179 26.7424L22.9695 25.2816C23.4914 24.5566 24.3604 24.1652 25.2492 24.2547C26.138 24.3442 26.9115 24.9011 27.2784 25.7155C27.6453 26.53 27.5498 27.4783 27.0279 28.2032L12.0278 49.0366C11.5993 49.6316 10.9312 50.0085 10.2003 50.0674C10.1353 50.0758 10.0678 50.0758 10.0012 50.0758C9.33818 50.0756 8.7024 49.8121 8.23367 49.3433L1.56699 42.6766C0.917102 42.0489 0.656462 41.1194 0.885251 40.2453C1.11404 39.3713 1.79665 38.6886 2.67073 38.4599C3.5448 38.2311 4.47431 38.4917 5.102 39.1416L9.69034 43.7291L19.5204 30.0757" fill="#59D759"/>
<path d="M2.60149 39.1417L7.18983 43.7292L8.23649 42.2759L5.10149 39.1417C4.29992 38.343 3.06103 38.1843 2.08398 38.755C2.27257 38.8609 2.44654 38.9908 2.60149 39.1417Z" fill="#59D759"/>
<path d="M26.463 24.7133C25.661 24.1381 24.5957 24.0885 23.7438 24.5867C23.8163 24.6292 23.893 24.6633 23.963 24.7133C24.5012 25.1007 24.8635 25.6861 24.9701 26.3406C25.0767 26.9951 24.9188 27.6652 24.5313 28.2033L9.53129 49.0367C9.32555 49.3204 9.06232 49.5575 8.75879 49.7325C9.1359 49.9542 9.56472 50.0726 10.0021 50.0759C10.0688 50.0759 10.1363 50.0759 10.2038 50.0675C10.9347 50.0086 11.6028 49.6317 12.0313 49.0367L27.0313 28.2033C27.4188 27.6652 27.5767 26.9951 27.4701 26.3406C27.3635 25.6861 27.0012 25.1007 26.463 24.7133Z" fill="#59D759"/>
<path d="M35 48.4091V41.7425C35 39.9015 36.4924 38.4091 38.3333 38.4091H45" fill="#A99247"/>
<path d="M45.8318 5.07573C45.829 2.77568 43.9651 0.911813 41.6651 0.909058H8.33171C6.03166 0.911813 4.16779 2.77568 4.16504 5.07573V34.2424C4.16504 34.7027 4.53814 35.0758 4.99837 35.0758C5.45861 35.0758 5.83171 34.7027 5.83171 34.2424V5.07573C5.83171 3.69502 6.951 2.57573 8.33171 2.57573H41.6651C43.0458 2.57573 44.1651 3.69502 44.1651 5.07573V37.5758H38.3317C36.0317 37.5785 34.1678 39.4424 34.1651 41.7424V47.5758H18.3317C17.8715 47.5758 17.4984 47.9489 17.4984 48.4091C17.4984 48.8694 17.8715 49.2425 18.3317 49.2425H34.9984C35.2194 49.2424 35.4313 49.1546 35.5876 48.9983L45.5876 38.9983C45.7439 38.842 45.8317 38.6301 45.8318 38.4091V5.07573ZM38.3317 39.2424H42.9868L35.8317 46.3974V41.7424C35.8317 40.3617 36.951 39.2424 38.3317 39.2424Z" fill="black"/>
<path d="M1.31123e-05 40.909C-0.00247507 41.7936 0.349248 42.6423 0.976681 43.2657L7.64336 49.9324C8.26718 50.5593 9.11564 50.9109 10 50.9091C10.0884 50.9091 10.1775 50.9091 10.2684 50.8982C11.2432 50.8202 12.1343 50.3173 12.705 49.5232L27.705 28.6899C28.4166 27.7241 28.5542 26.4505 28.0656 25.3549C27.5769 24.2594 26.5373 23.5109 25.3434 23.395C24.1494 23.2791 22.9852 23.8137 22.295 24.7949L21.2434 26.2557C21.0622 26.497 21.0256 26.8174 21.1477 27.0933C21.2698 27.3693 21.5316 27.5576 21.832 27.5858C22.1324 27.6139 22.4246 27.4775 22.5959 27.229L23.6475 25.769C23.9901 25.2721 24.5744 24.9992 25.1753 25.0555C25.7762 25.1118 26.2997 25.4886 26.5439 26.0404C26.7881 26.5923 26.7149 27.2331 26.3525 27.7157L11.3525 48.5491C11.068 48.9462 10.6229 49.1977 10.1359 49.2366C9.64847 49.2746 9.16868 49.0984 8.82169 48.7541L2.15502 42.0874C1.50438 41.4365 1.50438 40.3815 2.15502 39.7307C2.81432 39.1009 3.85238 39.1009 4.51169 39.7307L9.10003 44.3182C9.27203 44.4925 9.51274 44.5811 9.75669 44.5599C9.99997 44.5401 10.2223 44.4146 10.365 44.2166L20.1984 30.5624C20.3796 30.3211 20.4162 30.0007 20.294 29.7247C20.1719 29.4488 19.9102 29.2604 19.6097 29.2323C19.3093 29.2041 19.0171 29.3406 18.8459 29.589L9.58336 42.4474L5.69085 38.5524C4.37111 37.2947 2.29643 37.2947 0.976681 38.5524C0.349248 39.1758 -0.00247507 40.0245 1.31123e-05 40.909Z" fill="black"/>
<path d="M11.667 5.90894H10.0003C9.54009 5.90894 9.16699 6.28203 9.16699 6.74227C9.16699 7.20251 9.54009 7.5756 10.0003 7.5756H11.667C12.1272 7.5756 12.5003 7.20251 12.5003 6.74227C12.5003 6.28203 12.1272 5.90894 11.667 5.90894Z" fill="black"/>
<path d="M39.9994 5.90894H14.9994C14.5391 5.90894 14.166 6.28203 14.166 6.74227C14.166 7.20251 14.5391 7.5756 14.9994 7.5756H39.9994C40.4596 7.5756 40.8327 7.20251 40.8327 6.74227C40.8327 6.28203 40.4596 5.90894 39.9994 5.90894Z" fill="black"/>
<path d="M11.667 10.909H10.0003C9.54009 10.909 9.16699 11.2821 9.16699 11.7423C9.16699 12.2026 9.54009 12.5757 10.0003 12.5757H11.667C12.1272 12.5757 12.5003 12.2026 12.5003 11.7423C12.5003 11.2821 12.1272 10.909 11.667 10.909Z" fill="black"/>
<path d="M14.9994 12.5757H34.166C34.6263 12.5757 34.9994 12.2026 34.9994 11.7423C34.9994 11.2821 34.6263 10.909 34.166 10.909H14.9994C14.5391 10.909 14.166 11.2821 14.166 11.7423C14.166 12.2026 14.5391 12.5757 14.9994 12.5757Z" fill="black"/>
<path d="M11.667 15.909H10.0003C9.54009 15.909 9.16699 16.2821 9.16699 16.7423C9.16699 17.2026 9.54009 17.5757 10.0003 17.5757H11.667C12.1272 17.5757 12.5003 17.2026 12.5003 16.7423C12.5003 16.2821 12.1272 15.909 11.667 15.909Z" fill="black"/>
<path d="M14.9994 17.5757H28.3327C28.7929 17.5757 29.166 17.2026 29.166 16.7423C29.166 16.2821 28.7929 15.909 28.3327 15.909H14.9994C14.5391 15.909 14.166 16.2821 14.166 16.7423C14.166 17.2026 14.5391 17.5757 14.9994 17.5757Z" fill="black"/>
<path d="M42.4987 18.409C42.4987 17.9487 42.1256 17.5756 41.6654 17.5756C41.2051 17.5756 40.832 17.9487 40.832 18.409V30.0756C40.832 30.5359 41.2051 30.909 41.6654 30.909C42.1256 30.909 42.4987 30.5359 42.4987 30.0756V18.409Z" fill="black"/>
<path d="M41.6654 32.5758C41.2051 32.5758 40.832 32.9489 40.832 33.4091V35.0758C40.832 35.536 41.2051 35.9091 41.6654 35.9091C42.1256 35.9091 42.4987 35.536 42.4987 35.0758V33.4091C42.4987 32.9489 42.1256 32.5758 41.6654 32.5758Z" fill="black"/>
</svg>
