<svg width="32" height="32" viewBox="0 0 32 32" fill="none" xmlns="http://www.w3.org/2000/svg">
<path d="M31.9401 15.9701C31.9401 24.7901 24.7901 31.9401 15.9701 31.9401C7.14999 31.9401 0 24.7901 0 15.9701C0 7.14999 7.14999 0 15.9701 0C24.7901 0 31.9401 7.14999 31.9401 15.9701Z" fill="#A5A5A5"/>
<path d="M21.5944 12.3636L17.9584 15.9999L21.5944 19.636C22.1352 20.177 22.1352 21.0534 21.5944 21.5944C21.3241 21.8647 20.9699 21.9999 20.6157 21.9999C20.261 21.9999 19.9067 21.8649 19.6367 21.5944L16 17.9579L12.3636 21.5944C12.0934 21.8646 11.7391 21.9998 11.3846 21.9998C11.0303 21.9998 10.6763 21.8648 10.4058 21.5944C9.865 21.0536 9.865 20.1772 10.4058 19.6359L14.0416 15.9998L10.4056 12.3636C9.86479 11.8227 9.86479 10.9461 10.4056 10.4053C10.9463 9.8649 11.8224 9.8649 12.3634 10.4053L16 14.0416L19.6363 10.4053C20.1773 9.8649 21.0535 9.8649 21.5941 10.4053C22.1352 10.9461 22.1352 11.8227 21.5944 12.3636Z" fill="white"/>
</svg>
