<svg width="76" height="76" viewBox="0 0 76 76" fill="none" xmlns="http://www.w3.org/2000/svg">
<path d="M30.644 11.0324V1.22595H57.6118V11.0324H46.5795L39.2247 17.1614V11.0324H30.644Z" fill="#E6E9ED"/>
<path d="M46.5809 62.516V74.7741H41.6777L39.226 69.8709H19.6131L17.1615 74.7741H12.2583V57.6128H46.5809V62.516Z" fill="#E6E9ED"/>
<path d="M46.5809 52.7097V57.6129H12.2583V52.7097H46.5809Z" fill="#E6E9ED"/>
<path d="M50.2587 47.8064V52.7096H9.80713V47.8064H50.2587Z" fill="#AAB2BD"/>
<path d="M39.2256 69.871L41.6773 74.7742H17.1611L19.6127 69.871H39.2256Z" fill="#838F9B"/>
<path d="M60.0644 62.5161L61.2902 74.7742H56.3869L55.1611 62.5161H60.0644Z" fill="#838F9B"/>
<path d="M67.4202 40.4515V55.1612C67.4202 59.2187 64.1229 62.516 60.0654 62.516H46.5815V57.6128H57.6138C60.3228 57.6128 62.517 55.4186 62.517 52.7096V40.4515H67.4202Z" fill="#CF9E76"/>
<path d="M59.3053 38.7601C59.7955 38.2699 60.0654 37.6079 60.0654 36.9214C60.0654 36.2103 59.7709 35.5483 59.3053 35.0827C58.9252 34.7146 58.4476 34.4452 57.6138 34.3345V34.3225H59.3053C59.808 34.3225 60.2982 34.4326 60.7394 34.6655C61.8305 35.2054 62.517 36.3204 62.517 37.5343V52.7096C62.517 55.4186 60.3228 57.6128 57.6138 57.6128H46.5815V52.7096H50.259V47.8064H49.7562C50.0752 47.8064 50.3936 47.6717 50.6145 47.4508L59.3053 38.7601Z" fill="#FCD770"/>
<path d="M36.7745 47.8063H14.71V41.9957C14.71 40.3533 15.8011 38.9192 17.3824 38.4655L23.2906 36.774C23.2906 36.774 24.5164 39.2257 26.968 39.2257C29.4196 39.2257 30.6454 36.774 30.6454 36.774L36.5536 38.4655C38.135 38.9192 39.2261 40.3533 39.2261 41.9957V42.9031H36.7745C36.1005 42.9031 35.4876 43.173 35.0459 43.6261C34.5928 44.0678 34.3229 44.6807 34.3229 45.3547C34.3229 46.7032 35.426 47.8063 36.7745 47.8063Z" fill="#69D6F4"/>
<path d="M57.6136 34.3345C58.4473 34.4452 58.925 34.7146 59.305 35.0827C59.7707 35.5483 60.0652 36.2103 60.0652 36.9214C60.0652 37.6079 59.7952 38.2699 59.305 38.7601L50.6143 47.4508C50.3934 47.6717 50.075 47.8064 49.756 47.8064H36.7749C35.4263 47.8064 34.3232 46.7033 34.3232 45.3548C34.3232 44.6808 34.5932 44.0679 35.0463 43.6262C35.488 43.1731 36.1009 42.9032 36.7749 42.9032H47.8071L55.6276 35.0827C56.1178 34.5925 56.7798 34.3225 57.4663 34.3225C57.5154 34.3225 57.5645 34.3225 57.6136 34.3345Z" fill="#F0D0B4"/>
<path d="M62.5164 25.7418V28.1934C62.5164 31.5764 59.7703 34.3225 56.3873 34.3225C53.0044 34.3225 50.2583 31.5764 50.2583 28.1934V25.7418C50.2583 22.3589 53.0044 19.6128 56.3873 19.6128C58.0788 19.6128 59.6111 20.2993 60.7267 21.4024C61.8298 22.5181 62.5164 24.0504 62.5164 25.7418Z" fill="#F0D0B4"/>
<path d="M23.29 33.0967C24.3076 33.8688 25.5824 34.3225 26.9675 34.3225C28.3525 34.3225 29.6274 33.8688 30.6449 33.0967V36.7741C30.6449 36.7741 29.4191 39.2257 26.9675 39.2257C24.5158 39.2257 23.29 36.7741 23.29 36.7741V33.0967Z" fill="#F0D0B4"/>
<path d="M33.0969 25.7418V28.1934C33.0969 30.1914 32.1285 31.981 30.6453 33.0967C29.6278 33.8688 28.3529 34.3225 26.9679 34.3225C25.5829 34.3225 24.308 33.8688 23.2905 33.0967C21.8073 31.981 20.8389 30.1914 20.8389 28.1934V25.7418C20.8389 22.3589 23.585 19.6128 26.9679 19.6128C28.6594 19.6128 30.1916 20.2993 31.3073 21.4024C32.4104 22.5181 33.0969 24.0504 33.0969 25.7418Z" fill="#F0D0B4"/>
<path d="M37.9991 19.7781L47.0233 12.2581H58.8378V0H29.4185V12.2581H37.9991V19.7781ZM31.8701 9.80645V2.45161H56.3862V9.80645H46.1362L40.4507 14.5445V9.80645H31.8701Z" fill="black"/>
<path d="M34.3232 4.90332H36.7749V7.35493H34.3232V4.90332Z" fill="black"/>
<path d="M39.2256 4.90332H49.032V7.35493H39.2256V4.90332Z" fill="black"/>
<path d="M51.4839 4.90332H53.9355V7.35493H51.4839V4.90332Z" fill="black"/>
<path d="M62.3994 73.5485L61.4082 63.6253C65.501 62.9783 68.6452 59.4344 68.6452 55.1614V39.2259H63.7419V37.5321C63.7419 35.8657 62.8262 34.3694 61.3538 33.602C62.8178 32.2571 63.7419 30.334 63.7419 28.1937V25.742C63.7419 21.6858 60.4434 18.3872 56.3871 18.3872C52.3308 18.3872 49.0323 21.6858 49.0323 25.742V28.1937C49.0323 31.3671 51.0559 34.0689 53.878 35.0984L47.2989 41.6775H40.4247C40.2876 39.6341 38.884 37.8529 36.8957 37.2843L31.871 35.8502V33.6607C33.3715 32.3134 34.3226 30.3658 34.3226 28.1937V25.742C34.3226 21.6858 31.024 18.3872 26.9677 18.3872C22.9114 18.3872 19.6129 21.6858 19.6129 25.742V28.1937C19.6129 30.3646 20.564 32.3122 22.0645 33.6607V35.8514L17.0398 37.2855C14.9461 37.8822 13.4839 39.8215 13.4839 42.0001V46.5808H8.58065V53.9356H11.0323V73.5485H0V76.0001H76V73.5485H62.3994ZM51.4839 53.9356V48.3141L60.1699 39.6281C60.7977 39.0003 61.1712 38.1569 61.255 37.2771C61.2658 37.3627 61.2903 37.4435 61.2903 37.5321V52.7098C61.2903 54.737 59.6402 56.3872 57.6129 56.3872H47.8065V53.9356H51.4839ZM47.8065 63.742H54.0522L55.0326 73.5485H47.8065V63.742ZM56.5158 63.742H58.9554L59.9358 73.5485H57.4962L56.5158 63.742ZM63.7419 52.7098V41.6775H66.1936V55.1614C66.1936 58.5407 63.4439 61.2904 60.0645 61.2904H47.8065V58.8388H57.6129C60.9923 58.8388 63.7419 56.0891 63.7419 52.7098ZM51.4839 28.1937V25.742C51.4839 23.0378 53.6829 20.8388 56.3871 20.8388C59.0913 20.8388 61.2903 23.0378 61.2903 25.742V28.1937C61.2903 30.8979 59.0913 33.0969 56.3871 33.0969C53.6829 33.0969 51.4839 30.8979 51.4839 28.1937ZM48.314 44.1291L56.4924 35.9507C56.7486 35.6945 57.103 35.5485 57.4645 35.5485C58.2222 35.5485 58.8387 36.165 58.8387 36.9227C58.8387 37.2843 58.6927 37.6386 58.4365 37.8948L49.7505 46.5808H36.7742C36.0978 46.5808 35.5484 46.0313 35.5484 45.3549C35.5484 44.6786 36.0978 44.1291 36.7742 44.1291H48.314ZM22.0645 25.742C22.0645 23.0378 24.2635 20.8388 26.9677 20.8388C29.6719 20.8388 31.871 23.0378 31.871 25.742V28.1937C31.871 30.8979 29.6719 33.0969 26.9677 33.0969C24.2635 33.0969 22.0645 30.8979 22.0645 28.1937V25.742ZM26.9677 35.5485C27.8284 35.5485 28.6508 35.3917 29.4194 35.1193V36.4361C29.1153 36.9054 28.2708 38.0001 26.9677 38.0001C25.6647 38.0001 24.8202 36.9054 24.5161 36.4361V35.1193C25.2847 35.3917 26.107 35.5485 26.9677 35.5485ZM15.9355 42.0001C15.9355 40.9102 16.6675 39.9418 17.7131 39.6425L22.763 38.2C23.4741 39.1266 24.8579 40.4517 26.9677 40.4517C29.0776 40.4517 30.4614 39.1266 31.1725 38.1988L36.2223 39.6413C37.1614 39.91 37.8162 40.7264 37.9473 41.6763H36.7742C34.7469 41.6763 33.0968 43.3265 33.0968 45.3538C33.0968 45.7853 33.1848 46.1947 33.3224 46.5796H15.9355V42.0001ZM11.0323 49.0324H49.0323V51.484H11.0323V49.0324ZM13.4839 58.8388H17.1613V56.3872H13.4839V53.9356H45.3548V56.3872H19.6129V58.8388H45.3548V73.5485H42.4352L39.9836 68.6453H18.8552L16.4035 73.5485H13.4839V58.8388ZM39.6939 73.5485H19.1448L20.3707 71.0969H38.4681L39.6939 73.5485Z" fill="black"/>
</svg>
