<svg width="64" height="64" viewBox="0 0 64 64" fill="none" xmlns="http://www.w3.org/2000/svg">
<path d="M47 3H15C13.8954 3 13 3.89543 13 5V59C13 60.1046 13.8954 61 15 61H47C48.1046 61 49 60.1046 49 59V5C49 3.89543 48.1046 3 47 3Z" fill="#FEE9AB"/>
<path d="M40 11V17.41C39.9989 18.5401 39.7586 19.6572 39.295 20.6879C38.8313 21.7185 38.1549 22.6394 37.31 23.39L31 29L24.69 23.39C23.8451 22.6394 23.1687 21.7185 22.705 20.6879C22.2414 19.6572 22.0011 18.5401 22 17.41V11L31 7L40 11Z" fill="#FFD422"/>
<path d="M23 30C23 30.7956 22.6839 31.5587 22.1213 32.1213C21.5587 32.6839 20.7956 33 20 33H13V45H6.01L3 43V29L8 27H20C20.7956 27 21.5587 27.3161 22.1213 27.8787C22.6839 28.4413 23 29.2044 23 30Z" fill="#FFC477"/>
<path d="M23 30C22.9994 30.5263 22.8615 31.0433 22.6 31.5C22.4652 31.275 22.3041 31.0669 22.12 30.88C21.8419 30.601 21.5115 30.3797 21.1477 30.2287C20.7839 30.0777 20.3939 30 20 30H8L3 32V29L8 27H20C20.7956 27 21.5587 27.3161 22.1213 27.8787C22.6839 28.4413 23 29.2044 23 30Z" fill="#FFA733"/>
<path d="M40 11V17.41C39.9989 18.5401 39.7586 19.6572 39.295 20.6879C38.8313 21.7185 38.1549 22.6394 37.31 23.39L31 29L29 27.22L33.31 23.39C34.1549 22.6394 34.8313 21.7185 35.295 20.6879C35.7586 19.6572 35.9989 18.5401 36 17.41V11L29 7.89L31 7L40 11Z" fill="#EBBF00"/>
<path d="M49 5V59C48.9984 59.5299 48.7872 60.0377 48.4125 60.4125C48.0377 60.7872 47.5299 60.9984 47 61H43C43.5299 60.9984 44.0377 60.7872 44.4125 60.4125C44.7872 60.0377 44.9984 59.5299 45 59V5C44.9984 4.47005 44.7872 3.96227 44.4125 3.58753C44.0377 3.2128 43.5299 3.00158 43 3H47C47.5299 3.00158 48.0377 3.2128 48.4125 3.58753C48.7872 3.96227 48.9984 4.47005 49 5Z" fill="#FFDE55"/>
<path d="M47 2H15C14.2051 2.00237 13.4434 2.31921 12.8813 2.8813C12.3192 3.4434 12.0024 4.20508 12 5V26H8C7.8732 25.9981 7.74733 26.0219 7.63 26.07L2.63 28.07C2.44394 28.1441 2.28441 28.2724 2.17208 28.4382C2.05976 28.604 1.99981 28.7997 2 29V43C2.00085 43.1647 2.04238 43.3267 2.12088 43.4715C2.19938 43.6162 2.31244 43.7394 2.45 43.83L5.46 45.83C5.62182 45.9412 5.81366 46.0005 6.01 46H12V59C12.0024 59.7949 12.3192 60.5566 12.8813 61.1187C13.4434 61.6808 14.2051 61.9976 15 62H47C47.7949 61.9976 48.5566 61.6808 49.1187 61.1187C49.6808 60.5566 49.9976 59.7949 50 59V5C49.9976 4.20508 49.6808 3.4434 49.1187 2.8813C48.5566 2.31921 47.7949 2.00237 47 2ZM11.9 34H12V44H6.31L4 42.46V29.68L8.19 28H20C20.5304 28 21.0391 28.2107 21.4142 28.5858C21.7893 28.9609 22 29.4696 22 30C22 30.5304 21.7893 31.0391 21.4142 31.4142C21.0391 31.7893 20.5304 32 20 32H11C10.7348 32 10.4804 32.1054 10.2929 32.2929C10.1054 32.4804 10 32.7348 10 33C9.99763 33.7949 9.68079 34.5566 9.1187 35.1187C8.5566 35.6808 7.79492 35.9976 7 36V38C8.15221 37.9985 9.26868 37.5999 10.1613 36.8713C11.0538 36.1427 11.6679 35.1286 11.9 34ZM48 59C48 59.2652 47.8946 59.5196 47.7071 59.7071C47.5196 59.8946 47.2652 60 47 60H15C14.7348 60 14.4804 59.8946 14.2929 59.7071C14.1054 59.5196 14 59.2652 14 59V34H20C21.0609 34 22.0783 33.5786 22.8284 32.8284C23.5786 32.0783 24 31.0609 24 30C24 28.9391 23.5786 27.9217 22.8284 27.1716C22.0783 26.4214 21.0609 26 20 26H14V5C14 4.73478 14.1054 4.48043 14.2929 4.29289C14.4804 4.10536 14.7348 4 15 4H47C47.2652 4 47.5196 4.10536 47.7071 4.29289C47.8946 4.48043 48 4.73478 48 5V59Z" fill="black"/>
<path d="M31.0001 20C31.2653 19.9999 31.5196 19.8945 31.7071 19.707L37.3641 14.05L35.9501 12.636L31.0001 17.586L28.8781 15.464L27.4641 16.878L30.2931 19.707C30.4806 19.8945 30.7349 19.9999 31.0001 20Z" fill="black"/>
<path d="M40.41 10.09L31.41 6.08999C31.2815 6.0307 31.1416 6 31 6C30.8585 6 30.7186 6.0307 30.59 6.08999L21.59 10.09C21.4136 10.1675 21.2637 10.295 21.1588 10.4567C21.054 10.6184 20.9988 10.8073 21 11V17.41C20.9995 18.68 21.2685 19.9356 21.7891 21.094C22.3096 22.2524 23.07 23.2872 24.02 24.13L30.34 29.75C30.5225 29.9103 30.7571 29.9987 31 29.9987C31.2429 29.9987 31.4775 29.9103 31.66 29.75L37.98 24.13C38.93 23.2872 39.6904 22.2524 40.211 21.094C40.7316 19.9356 41.0005 18.68 41 17.41V11C41.0013 10.8073 40.9461 10.6184 40.8412 10.4567C40.7364 10.295 40.5865 10.1675 40.41 10.09ZM39 17.41C38.9988 18.3981 38.7888 19.3748 38.3839 20.2761C37.9789 21.1774 37.388 21.9829 36.65 22.64L31 27.66L25.35 22.64C24.612 21.9829 24.0212 21.1774 23.6162 20.2761C23.2112 19.3748 23.0012 18.3981 23 17.41V11.65L31 8.08999L39 11.65V17.41Z" fill="black"/>
<path d="M18 38H22V40H18V38Z" fill="black"/>
<path d="M24 38H44V40H24V38Z" fill="black"/>
<path d="M18 44H22V46H18V44Z" fill="black"/>
<path d="M24 44H44V46H24V44Z" fill="black"/>
<path d="M18 50H22V52H18V50Z" fill="black"/>
<path d="M24 50H44V52H24V50Z" fill="black"/>
<path d="M18 56H22V58H18V56Z" fill="black"/>
<path d="M24 56H44V58H24V56Z" fill="black"/>
</svg>
