<svg width="67" height="67" viewBox="0 0 67 67" fill="none" xmlns="http://www.w3.org/2000/svg">
<g clip-path="url(#clip0)">
<path d="M58.0647 66.0187H18.6497C17.4916 66.0187 16.5527 65.0799 16.5527 63.9218V13.4831C16.5527 12.3249 17.4916 11.3861 18.6497 11.3861H58.0647C59.2228 11.3861 60.1616 12.3249 60.1616 13.4831V63.9218C60.1616 65.0799 59.2228 66.0187 58.0647 66.0187Z" fill="#C8EFFE"/>
<path d="M58.065 11.3861H55.1123C56.2704 11.3861 57.2093 12.3249 57.2093 13.4831V63.9218C57.2093 65.0799 56.2704 66.0187 55.1123 66.0187H58.065C59.2231 66.0187 60.1619 65.0799 60.1619 63.9218V13.4832C60.1619 12.3249 59.2231 11.3861 58.065 11.3861Z" fill="#99E6FC"/>
<path d="M53.1975 66.0187H13.7825C12.6244 66.0187 11.6855 65.0799 11.6855 63.9218V13.4831C11.6855 12.3249 12.6244 11.3861 13.7825 11.3861H53.1975C54.3556 11.3861 55.2944 12.3249 55.2944 13.4831V63.9218C55.2946 65.0799 54.3556 66.0187 53.1975 66.0187Z" fill="#C8EFFE"/>
<path d="M53.1973 11.3861H50.2446C51.4028 11.3861 52.3416 12.3249 52.3416 13.4831V63.9218C52.3416 65.0799 51.4028 66.0187 50.2446 66.0187H53.1973C54.3554 66.0187 55.2943 65.0799 55.2943 63.9218V13.4832C55.2944 12.3249 54.3554 11.3861 53.1973 11.3861Z" fill="#99E6FC"/>
<path d="M48.3498 60.9645H8.93484C7.77672 60.9645 6.83789 60.0257 6.83789 58.8676V8.42886C6.83789 7.27074 7.77672 6.33191 8.93484 6.33191H48.3498C49.508 6.33191 50.4468 7.27074 50.4468 8.42886V58.8676C50.4468 60.0257 49.508 60.9645 48.3498 60.9645Z" fill="#EAF6FF"/>
<path d="M48.3496 6.33191H45.1431C46.3012 6.33191 47.24 7.27074 47.24 8.42886V58.8676C47.24 60.0257 46.3012 60.9645 45.1431 60.9645H48.3496C49.5077 60.9645 50.4466 60.0257 50.4466 58.8676V8.42886C50.4466 7.27074 49.5077 6.33191 48.3496 6.33191Z" fill="#C8EFFE"/>
<path d="M27.8727 27.1541H14.6666C13.5712 27.1541 12.6831 26.266 12.6831 25.1706V6.33191H29.8562V25.1706C29.8562 26.266 28.9682 27.1541 27.8727 27.1541Z" fill="#F89580"/>
<path d="M26.6495 6.33191V25.1706C26.6495 26.266 25.7615 27.1541 24.666 27.1541H27.8726C28.968 27.1541 29.8561 26.266 29.8561 25.1706V6.33191H26.6495Z" fill="#F28472"/>
<path d="M43.0187 52.6818H25.6785C24.9777 52.6818 24.4097 52.1136 24.4097 51.4129V47.1261C24.4097 46.4253 24.9778 45.8573 25.6785 45.8573H43.0187C43.7195 45.8573 44.2877 46.4254 44.2877 47.1261V51.4129C44.2877 52.1136 43.7195 52.6818 43.0187 52.6818Z" fill="#99E6FC"/>
<path d="M43.0185 45.8571H39.812C40.5128 45.8571 41.081 46.4252 41.081 47.126V51.4128C41.081 52.1136 40.5128 52.6817 39.812 52.6817H43.0185C43.7194 52.6817 44.2875 52.1135 44.2875 51.4128V47.126C44.2875 46.4252 43.7194 45.8571 43.0185 45.8571Z" fill="#62DBFB"/>
<path d="M13.9519 52.6818H17.8648C18.5656 52.6818 19.1336 52.1136 19.1336 51.4129V47.1261C19.1336 46.4253 18.5655 45.8573 17.8648 45.8573H13.9519C13.2511 45.8573 12.6831 46.4254 12.6831 47.1261V51.4129C12.683 52.1136 13.2511 52.6818 13.9519 52.6818Z" fill="#0593FC"/>
<path d="M17.8647 45.8571H14.6582C15.359 45.8571 15.9272 46.4252 15.9272 47.126V51.4128C15.9272 52.1136 15.359 52.6817 14.6582 52.6817H17.8647C18.5656 52.6817 19.1337 52.1135 19.1337 51.4128V47.126C19.1336 46.4252 18.5656 45.8571 17.8647 45.8571Z" fill="#0181FA"/>
<path d="M58.0654 10.4048H51.4285V8.42878C51.4285 6.7313 50.0476 5.35048 48.3502 5.35048H34.4377C33.8956 5.35048 33.4563 5.78986 33.4563 6.33183C33.4563 6.8738 33.8956 7.31318 34.4377 7.31318H48.3502C48.9653 7.31318 49.4658 7.81367 49.4658 8.42878V58.8675C49.4658 59.4827 48.9653 59.9831 48.3502 59.9831H8.93524C8.31999 59.9831 7.81964 59.4826 7.81964 58.8675V8.42878C7.81964 7.81354 8.32013 7.31318 8.93524 7.31318H11.702V25.1705C11.702 26.8053 13.0321 28.1354 14.6669 28.1354H27.8728C29.5076 28.1354 30.8377 26.8053 30.8377 25.1705V6.33183C30.8377 5.78986 30.3983 5.35048 29.8563 5.35048H25.1295V3.78372C25.1295 1.7009 23.435 0.00643079 21.3522 0.00643079C19.2711 -0.119706 17.3478 1.62631 17.3569 3.78372V5.35048H8.93524C7.23776 5.35048 5.85693 6.73143 5.85693 8.42878V58.8675C5.85693 60.565 7.23789 61.9458 8.93524 61.9458H10.704V63.9212C10.704 65.6188 12.0852 67 13.7829 67H58.0654C59.7623 67 61.1429 65.6188 61.1429 63.9212V13.4837C61.1429 11.786 59.7623 10.4048 58.0654 10.4048ZM19.3196 3.78372C19.3126 2.79687 20.2547 1.87113 21.3522 1.96913C22.3527 1.96913 23.1668 2.78313 23.1668 3.78372V5.35048H19.3196V3.78372ZM17.3569 7.31318V15.5457C17.3441 17.6488 19.1915 19.4309 21.3522 19.323C23.4349 19.323 25.1295 17.6285 25.1295 15.5457V13.9624C25.1295 13.4205 24.6901 12.9811 24.1481 12.9811C23.6062 12.9811 23.1668 13.4205 23.1668 13.9624V15.5457C23.1668 16.5461 22.3528 17.3603 21.3522 17.3603C20.3925 17.4715 19.3177 16.6388 19.3196 15.5457V7.31318H23.1668V8.84082C23.1668 9.22485 22.8543 9.53731 22.4703 9.53731C21.9283 9.53731 21.4889 9.9767 21.4889 10.5187C21.4889 11.0606 21.9283 11.5 22.4703 11.5C23.9366 11.5 25.1295 10.3071 25.1295 8.84082V7.31318H28.875V25.1705C28.875 25.7231 28.4254 26.1727 27.8728 26.1727H14.6667C14.1142 26.1727 13.6646 25.7231 13.6646 25.1705V7.31318H17.3569ZM59.1802 63.9212C59.1802 64.5366 58.6801 65.0373 58.0654 65.0373H56.0664C56.2016 64.691 56.2767 64.3148 56.2767 63.9212V26.2428C56.2767 25.7008 55.8374 25.2614 55.2953 25.2614C54.7532 25.2614 54.314 25.7008 54.314 26.2428V63.9212C54.314 64.5366 53.8132 65.0373 53.1978 65.0373H13.7829C13.1673 65.0373 12.6667 64.5366 12.6667 63.9212V61.9458H48.3502C50.0477 61.9458 51.4285 60.5648 51.4285 58.8675V12.3675H53.1977C53.8131 12.3675 54.3138 12.8683 54.3138 13.4837V21.6232C54.3138 22.1652 54.7531 22.6046 55.2952 22.6046C55.8373 22.6046 56.2765 22.1652 56.2765 21.6232V13.4837C56.2765 13.0901 56.2014 12.7139 56.0663 12.3675H58.0652C58.6798 12.3675 59.18 12.8683 59.18 13.4837V63.9212H59.1802Z" fill="black"/>
<path d="M43.0187 51.7003H31.8744C31.3324 51.7003 30.893 52.1397 30.893 52.6817C30.893 53.2236 31.3324 53.663 31.8744 53.663H43.0187C44.2594 53.663 45.2689 52.6535 45.2689 51.4127V47.1259C45.2689 45.8852 44.2594 44.8757 43.0187 44.8757H25.6785C24.4377 44.8757 23.4282 45.8852 23.4282 47.1259V51.4127C23.4282 52.6535 24.4377 53.663 25.6785 53.663H27.2603C27.8023 53.663 28.2417 53.2236 28.2417 52.6817C28.2417 52.1397 27.8023 51.7003 27.2603 51.7003H25.6785C25.5199 51.7003 25.3909 51.5713 25.3909 51.4127V47.1259C25.3909 46.9675 25.5199 46.8384 25.6785 46.8384H43.0187C43.1773 46.8384 43.3062 46.9675 43.3062 47.1259V51.4127C43.3062 51.5713 43.1773 51.7003 43.0187 51.7003Z" fill="black"/>
<path d="M13.9523 44.8757C12.7116 44.8757 11.7021 45.8852 11.7021 47.1259V51.4127C11.7021 52.6535 12.7116 53.663 13.9523 53.663H17.8652C19.1059 53.663 20.1153 52.6535 20.1153 51.4127V47.1259C20.1153 45.8852 19.1059 44.8757 17.8652 44.8757H13.9523ZM18.1526 47.1259V51.4127C18.1526 51.5713 18.0236 51.7003 17.8652 51.7003H13.9523C13.7939 51.7003 13.6649 51.5713 13.6649 51.4127V47.1259C13.6649 46.9675 13.7939 46.8384 13.9523 46.8384H17.8652C18.0236 46.8384 18.1526 46.9675 18.1526 47.1259Z" fill="black"/>
<path d="M43.6279 15.1555C44.17 15.1555 44.6092 14.7161 44.6092 14.1741C44.6092 13.6321 44.17 13.1927 43.6279 13.1927H36.3676C35.8255 13.1927 35.3862 13.6321 35.3862 14.1741C35.3862 14.7161 35.8255 15.1555 36.3676 15.1555H43.6279Z" fill="black"/>
<path d="M11.7021 33.9201C11.7021 34.462 12.1415 34.9014 12.6835 34.9014H43.6281C44.1702 34.9014 44.6095 34.462 44.6095 33.9201C44.6095 33.3781 44.1702 32.9387 43.6281 32.9387H12.6835C12.1414 32.9387 11.7021 33.3781 11.7021 33.9201Z" fill="black"/>
<path d="M44.6093 38.7024C44.6093 38.1605 44.1701 37.7211 43.628 37.7211H12.6835C12.1415 37.7211 11.7021 38.1605 11.7021 38.7024C11.7021 39.2444 12.1415 39.6838 12.6835 39.6838H43.6281C44.1701 39.6838 44.6093 39.2444 44.6093 38.7024Z" fill="black"/>
</g>
<defs>
<clipPath id="clip0">
<rect width="67" height="67" fill="white"/>
</clipPath>
</defs>
</svg>
