<svg width="41" height="65" viewBox="0 0 41 65" fill="none" xmlns="http://www.w3.org/2000/svg">
<path d="M35.9728 1.09375H5.02713C2.86476 1.09375 1.11182 2.84669 1.11182 5.00906V59.9909C1.11182 62.1533 2.86476 63.9062 5.02713 63.9062H35.9728C38.1351 63.9062 39.8881 62.1533 39.8881 59.9909V5.00906C39.8881 2.84669 38.1351 1.09375 35.9728 1.09375Z" fill="#FFEAA7"/>
<path d="M35.9728 1.09376H33.0625C34.1009 1.09376 35.0968 1.50627 35.831 2.24053C36.5653 2.9748 36.9778 3.97067 36.9778 5.00908V59.991C36.9778 60.5051 36.8765 61.0142 36.6798 61.4893C36.483 61.9643 36.1946 62.3959 35.831 62.7595C35.4675 63.1231 35.0359 63.4115 34.5608 63.6082C34.0858 63.805 33.5767 63.9063 33.0625 63.9063H35.9833C36.4974 63.9063 37.0066 63.805 37.4816 63.6082C37.9566 63.4115 38.3883 63.1231 38.7518 62.7595C39.1154 62.3959 39.4038 61.9643 39.6006 61.4893C39.7973 61.0142 39.8986 60.5051 39.8986 59.991V5.00908C39.8986 4.49403 39.797 3.98404 39.5996 3.50833C39.4021 3.03262 39.1128 2.60053 38.7481 2.23682C38.3834 1.87312 37.9506 1.58494 37.4744 1.38879C36.9981 1.19264 36.4879 1.09239 35.9728 1.09376Z" fill="#FEC108"/>
<path d="M24.0381 6.61078H16.9613C16.1529 6.60998 15.3614 6.37923 14.6792 5.94546C13.9971 5.5117 13.4524 4.89282 13.1088 4.16109L11.6641 1.09375H29.3353L27.8906 4.16109C27.547 4.89282 27.0023 5.5117 26.3202 5.94546C25.638 6.37923 24.8465 6.60998 24.0381 6.61078Z" fill="#736E6E"/>
<path d="M26.2366 1.09375L24.792 4.16109C24.4494 4.89361 23.9049 5.51318 23.2225 5.9471C22.5401 6.38101 21.7481 6.61125 20.9395 6.61078H24.0801C24.8885 6.60998 25.68 6.37923 26.3621 5.94546C27.0443 5.5117 27.589 4.89282 27.9326 4.16109L29.3354 1.09375H26.2366Z" fill="#595454"/>
<path d="M11.518 33.7772C12.5435 33.7744 13.526 33.3651 14.2501 32.639C14.9743 31.9129 15.3809 30.9292 15.3809 29.9037H7.64453C7.64453 30.931 8.05263 31.9163 8.77904 32.6427C9.50545 33.3691 10.4907 33.7772 11.518 33.7772Z" fill="#ECC32E"/>
<path d="M29.4826 33.7772C30.5099 33.7772 31.4951 33.3691 32.2215 32.6427C32.9479 31.9163 33.356 30.931 33.356 29.9037H25.6196C25.6196 30.9292 26.0263 31.9129 26.7504 32.639C27.4746 33.3651 28.4571 33.7744 29.4826 33.7772Z" fill="#ECC32E"/>
<path d="M15.8519 41.1158H25.1481C25.745 41.1158 26.3175 41.3529 26.7396 41.775C27.1618 42.1971 27.3989 42.7696 27.3989 43.3666V44.2145H13.6011V43.3666C13.6011 42.7696 13.8382 42.1971 14.2603 41.775C14.6824 41.3529 15.2549 41.1158 15.8519 41.1158Z" fill="#ECC32E"/>
<path d="M7.64453 28.8569C7.36688 28.8569 7.10061 28.9672 6.90428 29.1635C6.70795 29.3598 6.59766 29.6261 6.59766 29.9037C6.65602 31.1681 7.19935 32.3613 8.11472 33.2354C9.03008 34.1094 10.2471 34.5972 11.5127 34.5972C12.7784 34.5972 13.9954 34.1094 14.9108 33.2354C15.8261 32.3613 16.3695 31.1681 16.4278 29.9037C16.4278 29.6261 16.3175 29.3598 16.1212 29.1635C15.9249 28.9672 15.6586 28.8569 15.3809 28.8569H14.4283L12.7952 23.7481C15.0262 23.2658 17.3518 23.4852 19.4533 24.3762V40.0794H15.852C14.9774 40.0794 14.1387 40.4268 13.5202 41.0452C12.9018 41.6637 12.5544 42.5024 12.5544 43.377V44.225C12.5544 44.5027 12.6647 44.7689 12.861 44.9653C13.0573 45.1616 13.3236 45.2719 13.6013 45.2719H27.3991C27.6767 45.2719 27.943 45.1616 28.1393 44.9653C28.3357 44.7689 28.4459 44.5027 28.4459 44.225V43.377C28.4459 42.5024 28.0985 41.6637 27.4801 41.0452C26.8617 40.4268 26.0229 40.0794 25.1483 40.0794H21.547V24.4286C23.6711 23.6054 25.9711 23.3423 28.2261 23.6644L26.572 28.8987H25.6194C25.3417 28.8987 25.0755 29.009 24.8791 29.2054C24.6828 29.4017 24.5725 29.668 24.5725 29.9456C24.6309 31.2099 25.1742 32.4031 26.0896 33.2772C27.0049 34.1513 28.2219 34.639 29.4876 34.639C30.7533 34.639 31.9702 34.1513 32.8856 33.2772C33.801 32.4031 34.3443 31.2099 34.4027 29.9456C34.4027 29.668 34.2924 29.4017 34.096 29.2054C33.8997 29.009 33.6334 28.8987 33.3558 28.8987H32.3927L31.0631 24.7112C31.301 24.7554 31.5468 24.7158 31.7587 24.5992C31.9707 24.4826 32.1357 24.2962 32.2258 24.0717C32.3159 23.8471 32.3254 23.5984 32.2527 23.3676C32.1801 23.1369 32.0298 22.9384 31.8274 22.8059C29.0008 21.1728 25.6194 21.0053 21.547 22.2616V20.7855C21.547 20.5078 21.4367 20.2415 21.2404 20.0452C21.0441 19.8489 20.7778 19.7386 20.5002 19.7386C20.2225 19.7386 19.9562 19.8489 19.7599 20.0452C19.5636 20.2415 19.4533 20.5078 19.4533 20.7855V22.1464C16.1136 20.9968 12.4561 21.2035 9.26719 22.7222C9.05 22.8211 8.87315 22.9913 8.76593 23.2045C8.65871 23.4178 8.62756 23.6612 8.67765 23.8946C8.72774 24.1279 8.85606 24.3371 9.04134 24.4876C9.22663 24.638 9.45775 24.7206 9.69641 24.7217C9.77869 24.7154 9.85971 24.6978 9.93719 24.6694L8.60766 28.8569H7.64453ZM26.3313 43.1677H14.6691C14.7069 42.8799 14.8475 42.6154 15.0648 42.4231C15.2822 42.2307 15.5618 42.1234 15.852 42.1208H25.1483C25.4385 42.1234 25.7181 42.2307 25.9355 42.4231C26.1529 42.6154 26.2934 42.8799 26.3313 43.1677ZM29.4719 32.6989C28.9091 32.6981 28.3593 32.5293 27.8931 32.2141C27.4268 31.8989 27.0652 31.4516 26.8547 30.9297H32.0891C31.8825 31.4539 31.524 31.9044 31.0595 32.2234C30.595 32.5424 30.0458 32.7153 29.4824 32.7198L29.4719 32.6989ZM28.76 28.8359L29.4719 26.6061L30.1838 28.8359H28.76ZM11.518 32.7198C10.9552 32.719 10.4054 32.5502 9.93914 32.235C9.47287 31.9198 9.11132 31.4726 8.90078 30.9506H14.1352C13.9246 31.4726 13.5631 31.9198 13.0968 32.235C12.6305 32.5502 12.0808 32.719 11.518 32.7198ZM11.518 26.627L12.2298 28.8569H10.8061L11.518 26.627Z" fill="black"/>
<path d="M39.8881 55.0602C39.6104 55.0602 39.3441 55.1705 39.1478 55.3668C38.9515 55.5631 38.8412 55.8294 38.8412 56.107V59.9805C38.8412 60.7422 38.5393 61.4729 38.0017 62.0125C37.464 62.5521 36.7345 62.8566 35.9728 62.8594H5.02713C4.26541 62.8566 3.53584 62.5521 2.9982 62.0125C2.46056 61.4729 2.15869 60.7422 2.15869 59.9805V15.5092C2.15869 15.2316 2.0484 14.9653 1.85207 14.769C1.65574 14.5726 1.38946 14.4623 1.11182 14.4623C0.834168 14.4623 0.567891 14.5726 0.371564 14.769C0.175237 14.9653 0.0649414 15.2316 0.0649414 15.5092V59.9805C0.0649385 61.2975 0.587405 62.5607 1.5177 63.493C2.44799 64.4252 3.71011 64.9504 5.02713 64.9531H35.9728C37.2898 64.9504 38.5519 64.4252 39.4822 63.493C40.4125 62.5607 40.9349 61.2975 40.9349 59.9805V56.107C40.9349 55.8294 40.8246 55.5631 40.6283 55.3668C40.432 55.1705 40.1657 55.0602 39.8881 55.0602Z" fill="black"/>
<path d="M35.9728 0.046875H5.02713C3.71011 0.0496477 2.44799 0.574775 1.5177 1.50703C0.587405 2.43928 0.0649385 3.70251 0.0649414 5.01953V11.8452C0.0649414 12.1228 0.175237 12.3891 0.371564 12.5854C0.567891 12.7817 0.834168 12.892 1.11182 12.892C1.38946 12.892 1.65574 12.7817 1.85207 12.5854C2.0484 12.3891 2.15869 12.1228 2.15869 11.8452V5.01953C2.15869 4.25781 2.46056 3.52713 2.9982 2.98753C3.53584 2.44793 4.26541 2.14339 5.02713 2.14062H11.0048C11.6224 3.00953 12.4913 7.65766 16.9615 7.65766H24.0384C28.5085 7.65766 29.367 3.03047 29.9951 2.14062H35.9728C36.7345 2.14339 37.464 2.44793 38.0017 2.98753C38.5393 3.52713 38.8412 4.25781 38.8412 5.01953V52.443C38.8412 52.7206 38.9515 52.9869 39.1478 53.1832C39.3441 53.3795 39.6104 53.4898 39.8881 53.4898C40.1657 53.4898 40.432 53.3795 40.6283 53.1832C40.8246 52.9869 40.9349 52.7206 40.9349 52.443V5.01953C40.9349 3.70251 40.4125 2.43928 39.4822 1.50703C38.5519 0.574775 37.2898 0.0496477 35.9728 0.046875ZM24.0384 5.56391H16.9615C14.2187 5.56391 13.7476 2.75828 13.3184 2.14062H27.6815C27.2418 2.76875 26.7812 5.56391 24.0384 5.56391Z" fill="black"/>
</svg>
