<svg width="60" height="60" viewBox="0 0 60 60" fill="none" xmlns="http://www.w3.org/2000/svg">
<path d="M21.06 42.03L1.64001 58.46C1.23535 58.0818 1.00394 57.5539 1.00001 57V33.05C0.998983 32.7258 1.07799 32.4063 1.23001 32.12L9.00001 36L21.06 42.03Z" fill="#FFEAA7"/>
<path d="M8.99998 26.46V36L1.22998 32.12C1.38082 31.8341 1.59659 31.5875 1.85998 31.4L8.99998 26.46Z" fill="#F57C00"/>
<path d="M52.3601 58.46C51.9948 58.8109 51.5066 59.0047 51.0001 59H3.00014C2.49364 59.0047 2.00543 58.8109 1.64014 58.46L21.0601 42.03L25.7101 38.09C26.4552 37.4611 27.5451 37.4611 28.2901 38.09L32.9401 42.03L52.3601 58.46Z" fill="#FFEAA7"/>
<path d="M32.94 42.03L28.29 38.09C27.545 37.4611 26.455 37.4611 25.71 38.09L25.5 38.268L29.94 42.03L49.36 58.46C48.9947 58.8109 48.5065 59.0047 48 59H51C51.5065 59.0047 51.9947 58.8109 52.36 58.46L32.94 42.03Z" fill="#FDD834"/>
<path d="M53.0002 33.05V57C52.9963 57.5539 52.7648 58.0818 52.3602 58.46L32.9402 42.03L45.0002 36L52.7702 32.12C52.9222 32.4063 53.0012 32.7258 53.0002 33.05Z" fill="#FFEAA7"/>
<path d="M52.77 32.12L50 33.5V56.46L52.36 58.46C52.7647 58.0818 52.9961 57.5539 53 57V33.05C53.001 32.7258 52.922 32.4063 52.77 32.12Z" fill="#FEC108"/>
<path d="M52.77 32.12L45 36V26.46L52.14 31.4C52.4034 31.5875 52.6192 31.8341 52.77 32.12Z" fill="#F57C00"/>
<path d="M45 8V36L32.94 42.03L28.29 38.09C27.545 37.4612 26.455 37.4612 25.71 38.09L21.06 42.03L9 36V8C9.00329 6.8968 9.8968 6.00329 11 6H43C44.1032 6.00329 44.9967 6.8968 45 8Z" fill="#F5F5F5"/>
<path d="M25.2901 38.09C24.545 37.4611 23.4551 37.4611 22.7101 38.09L19.1731 41.09L21.0601 42.033L25.5001 38.271L25.2901 38.09Z" fill="#CFD8DC"/>
<path d="M43.0001 6H40.0001C41.1033 6.00329 41.9969 6.8968 42.0001 8V36L31.8271 41.087L32.9401 42.03L45.0001 36V8C44.9969 6.8968 44.1033 6.00329 43.0001 6Z" fill="#CFD8DC"/>
<path d="M51.9502 13.74L47.8402 16.58L42.1501 8.36001L46.2601 5.51001L51.9502 13.74Z" fill="#FFEAA7"/>
<path d="M46.2602 5.51001L44.2322 6.91601L48.9502 13.74L46.8692 15.178L47.8402 16.58L51.9502 13.74L46.2602 5.51001Z" fill="#FEC108"/>
<path d="M22.4255 22.0101L42.1775 8.35406L47.8658 16.5816L28.1138 30.2376L22.4255 22.0101Z" fill="#F44335"/>
<path d="M42.1502 8.35999L40.1212 9.76298L44.8402 16.58L27.1292 28.827L28.1002 30.23L47.8402 16.58L42.1502 8.35999Z" fill="#C81E1E"/>
<path d="M57.71 9.76004L51.95 13.74L46.26 5.51004L52.02 1.53004C53.3817 0.590028 55.2475 0.930063 56.19 2.29004L58.47 5.58004C59.411 6.94492 59.0712 8.81376 57.71 9.76004Z" fill="#E91E63"/>
<path d="M58.47 5.58002L56.19 2.29002C55.3001 1.01115 53.5773 0.629952 52.231 1.41402C52.6118 1.63111 52.9394 1.93037 53.19 2.29002L55.47 5.58002C56.411 6.94489 56.0712 8.81373 54.71 9.76002L50.98 12.337L51.95 13.737L57.71 9.75702C59.0693 8.81089 59.409 6.94432 58.47 5.58002Z" fill="#AD1457"/>
<path d="M21.8501 31.75L17.0901 32.9C16.69 32.9943 16.2729 32.834 16.0388 32.4961C15.8047 32.1582 15.8013 31.7115 16.0301 31.37L18.7901 27.32L21.8501 31.75Z" fill="#545C60"/>
<path d="M28.1 30.23L21.85 31.75L18.79 27.32L22.41 22.01L28.1 30.23Z" fill="#FFE0B2"/>
<path d="M22.4099 22.01L20.9209 24.193L25.0999 30.23L21.4179 31.125L21.8499 31.75L28.0999 30.23L22.4099 22.01Z" fill="#DFC49C"/>
<path d="M24.2911 45.846L24.4151 45.746C25.9046 44.4774 28.0946 44.4774 29.5841 45.746L29.7081 45.846C29.9778 46.0965 30.3633 46.1785 30.7116 46.0596C31.0599 45.9407 31.3148 45.6401 31.3751 45.277C31.4353 44.9139 31.2913 44.5471 31.0001 44.322L30.8751 44.215C28.6401 42.3115 25.3541 42.3115 23.1191 44.215L22.9971 44.315C22.5749 44.6712 22.5214 45.3023 22.8776 45.7245C23.2338 46.1467 23.8649 46.2002 24.2871 45.844L24.2911 45.846Z" fill="black"/>
<path d="M3 60H51C52.6569 60 54 58.6569 54 57V33.048C53.997 32.0643 53.5149 31.1437 52.708 30.581L46 25.936V23.4C46 22.8477 45.5523 22.4 45 22.4C44.4477 22.4 44 22.8477 44 23.4V35.385L33.086 40.839L28.938 37.328C27.8172 36.3885 26.1838 36.3885 25.063 37.328L20.914 40.84L10 35.385V8C10 7.44772 10.4477 7 11 7H38.53C39.0823 7 39.53 6.55229 39.53 6C39.53 5.44772 39.0823 5 38.53 5H11C9.34315 5 8 6.34315 8 8V25.936L1.292 30.581C0.484865 31.1435 0.00267968 32.0642 0 33.048V57C0 58.6569 1.34315 60 3 60ZM46 28.369L51.047 31.869L46 34.385V28.369ZM4.967 55.646C5.32385 56.0673 5.95456 56.1197 6.376 55.763L26.358 38.852C26.7298 38.5398 27.2722 38.5398 27.644 38.852L47.624 55.762C48.0466 56.1037 48.6647 56.0453 49.0159 55.6305C49.367 55.2158 49.3227 54.5965 48.916 54.236L34.747 42.245L52 33.623V57C52 57.5523 51.5523 58 51 58H3C2.44772 58 2 57.5523 2 57V33.623L19.253 42.245L5.084 54.237C4.66274 54.5939 4.61037 55.2246 4.967 55.646ZM8 34.385L2.953 31.864L8 28.369V34.385Z" fill="black"/>
<path d="M14 12H32C32.5523 12 33 11.5523 33 11C33 10.4477 32.5523 10 32 10H14C13.4477 10 13 10.4477 13 11C13 11.5523 13.4477 12 14 12Z" fill="black"/>
<path d="M14 16H24C24.5523 16 25 15.5523 25 15C25 14.4477 24.5523 14 24 14H14C13.4477 14 13 14.4477 13 15C13 15.5523 13.4477 16 14 16Z" fill="black"/>
<path d="M40 28H37C36.4477 28 36 28.4477 36 29C36 29.5523 36.4477 30 37 30H40C40.5523 30 41 29.5523 41 29C41 28.4477 40.5523 28 40 28Z" fill="black"/>
<path d="M40 32H31C30.4477 32 30 32.4477 30 33C30 33.5523 30.4477 34 31 34H40C40.5523 34 41 33.5523 41 33C41 32.4477 40.5523 32 40 32Z" fill="black"/>
<path d="M21.84 21.188C21.834 21.188 21.588 21.44 21.583 21.446L15.2 30.806C14.7338 31.4899 14.737 32.3903 15.2081 33.0709C15.6791 33.7515 16.5208 34.0716 17.325 33.876L28.334 31.207C28.452 31.1741 28.5643 31.1236 28.667 31.057L58.2751 10.58C60.0895 9.32194 60.5436 6.83266 59.2901 5.01501L57.014 1.72501C55.7576 -0.0919889 53.2661 -0.546417 51.4491 0.710011L21.84 21.188ZM41.9001 9.75001L46.4501 16.33L28.351 28.844L23.8 22.264L41.9001 9.75001ZM22.282 30.616L20 27.317L22.415 23.776L26.447 29.606L22.282 30.616ZM16.852 31.932L18.793 29.087L20.2 31.121L16.852 31.932ZM48.09 15.192L43.5401 8.61201L46.007 6.90601L50.558 13.486L48.09 15.192ZM52.59 2.35501C53.0264 2.05322 53.5648 1.9372 54.0868 2.03247C54.6087 2.12775 55.0714 2.42651 55.3731 2.86301L57.648 6.15201C57.9502 6.58847 58.0664 7.12711 57.9711 7.6493C57.8758 8.17149 57.5768 8.63438 57.14 8.93601L52.2001 12.348L47.649 5.76801L52.59 2.35501Z" fill="black"/>
<path d="M14 20H19C19.5523 20 20 19.5523 20 19C20 18.4477 19.5523 18 19 18H14C13.4477 18 13 18.4477 13 19C13 19.5523 13.4477 20 14 20Z" fill="black"/>
</svg>
