<svg width="28" height="29" viewBox="0 0 28 29" fill="none" xmlns="http://www.w3.org/2000/svg">
<g clip-path="url(#clip0)">
<path d="M15.6953 0.217163C15.2419 0.217163 14.875 0.584061 14.875 1.03747C14.875 1.49089 15.2419 1.85778 15.6953 1.85778C21.5753 1.85778 26.3594 6.64184 26.3594 12.5218C26.3594 12.9752 26.7263 13.3421 27.1797 13.3421C27.6331 13.3421 28 12.9752 28 12.5218C28 5.73665 22.4805 0.217163 15.6953 0.217163Z" fill="#E43232"/>
<path d="M15.6953 3.49829C15.2419 3.49829 14.875 3.86519 14.875 4.3186C14.875 4.77202 15.2419 5.13891 15.6953 5.13891C19.7664 5.13891 23.0781 8.45062 23.0781 12.5217C23.0781 12.9751 23.445 13.342 23.8984 13.342C24.3518 13.342 24.7187 12.9751 24.7187 12.5217C24.7187 7.5462 20.6708 3.49829 15.6953 3.49829Z" fill="#E43232"/>
<path d="M15.6953 6.77948C15.2419 6.77948 14.875 7.14638 14.875 7.59979C14.875 8.0532 15.2419 8.4201 15.6953 8.4201C17.9568 8.4201 19.7969 10.2602 19.7969 12.5217C19.7969 12.9751 20.1638 13.342 20.6172 13.342C21.0706 13.342 21.4375 12.9751 21.4375 12.5217C21.4375 9.35575 18.8612 6.77948 15.6953 6.77948Z" fill="#E43232"/>
<path d="M15.6953 10.0607C15.2419 10.0607 14.875 10.4276 14.875 10.881C14.875 11.3345 15.2419 11.7014 15.6953 11.7014C16.1479 11.7014 16.5156 12.0691 16.5156 12.5217C16.5156 12.9751 16.8825 13.342 17.3359 13.342C17.7893 13.342 18.1562 12.9751 18.1562 12.5217C18.1562 11.1646 17.0523 10.0607 15.6953 10.0607Z" fill="#E43232"/>
<path d="M10.9005 5.57682L6.2606 0.936925C5.30089 -0.0235502 3.73957 -0.0219644 2.77991 0.936925L2.20312 1.51366L10.3237 9.6343L10.9005 9.05751C11.3651 8.59289 11.6215 7.97443 11.6215 7.31676C11.6215 6.65985 11.3651 6.04145 10.9005 5.57682Z" fill="#E43232"/>
<path d="M27.2802 21.9929L22.6403 17.353C21.7103 16.423 20.0872 16.4245 19.1604 17.353L18.583 17.93L26.7034 26.0504L27.2802 25.4736C28.2399 24.5139 28.2399 22.9526 27.2802 21.9929Z" fill="#E43232"/>
<path d="M17.3062 18.9733C16.3924 19.4067 15.2749 19.2684 14.5197 18.5132L9.74037 13.6975C8.98514 12.9423 8.84684 11.8248 9.28023 10.911L1.10627 2.73706C-1.22286 6.31723 -0.0425998 15.5158 6.26045 21.8181C12.4881 28.0458 21.7861 29.5204 25.4558 27.1229L17.3062 18.9733Z" fill="#E43232"/>
</g>
<defs>
<clipPath id="clip0">
<rect width="28" height="28" fill="white" transform="translate(0 0.214294)"/>
</clipPath>
</defs>
</svg>
