<svg width="65" height="65" viewBox="0 0 65 65" fill="none" xmlns="http://www.w3.org/2000/svg">
<path d="M1.04688 47.1562H63.8594V63.9062H1.04688V47.1562Z" fill="#CF9E76"/>
<path d="M12.5625 47.1562H27.2188V59.7188H12.5625V47.1562Z" fill="#E6E9ED"/>
<path d="M60.7188 33.5469C61.5877 33.5469 62.3728 33.9028 62.9381 34.4681C63.5034 35.0334 63.8594 35.8186 63.8594 36.6875C63.8594 37.5564 63.5034 38.3416 62.9381 38.9069C62.3728 39.4722 61.5877 39.8281 60.7188 39.8281H58.7506C58.468 39.8281 58.1853 39.8072 57.9131 39.7548C56.8034 39.5873 55.767 39.0639 54.9609 38.2578C53.9559 37.2528 53.3906 35.8919 53.3906 34.4681V32.5L54.1025 31.0658C54.3223 30.6366 54.4375 30.155 54.4375 29.663V29.3594C54.4375 27.6216 53.0347 26.2188 51.2969 26.2188L50.7316 24.5123C50.4384 23.6539 49.6428 23.0781 48.7425 23.0781H43.9688H42.9219C41.1841 23.0781 39.7812 21.6753 39.7812 19.9375C39.7812 19.0686 40.1372 18.2834 40.7025 17.7181C41.2678 17.1528 42.053 16.7969 42.9219 16.7969H52.3438C56.9709 16.7969 60.7188 20.5447 60.7188 25.1719V33.5469Z" fill="#656D78"/>
<path d="M60.7188 42.9688V47.1562H54.4375V42.9688C54.4375 41.2309 55.8403 39.8281 57.5781 39.8281C57.6828 39.8281 57.798 39.8386 57.9027 39.8491C58.6355 39.9223 59.3055 40.2573 59.7975 40.7494C60.3628 41.3147 60.7188 42.0998 60.7188 42.9688Z" fill="#A0D468"/>
<path d="M48.1562 35.6406H45.6647C45.2355 35.6406 44.8167 35.5464 44.4398 35.3475C43.5081 34.8869 42.9219 33.9342 42.9219 32.8978V31.4531L40.8281 30.4062C40.8281 27.2656 43.9688 23.0781 43.9688 23.0781H48.7425C49.6428 23.0781 50.4384 23.6539 50.7316 24.5123L51.2969 26.2188C53.0347 26.2188 54.4375 27.6216 54.4375 29.3594V29.663C54.4375 30.155 54.3223 30.6366 54.1025 31.0658L53.3906 32.5V34.4681C53.3906 35.8919 53.9559 37.2528 54.9609 38.2578C55.767 39.0639 56.8034 39.5873 57.9131 39.7548L57.9027 39.8491C57.798 39.8386 57.6828 39.8281 57.5781 39.8281H48.1562V35.6406Z" fill="#F0D0B4"/>
<path d="M48.1562 39.8281H57.5781C55.8403 39.8281 54.4375 41.2309 54.4375 42.9688V47.1562H50.25H39.7812V46.8213C39.7812 43.9423 41.7389 41.4298 44.5341 40.7284L48.1562 39.8281Z" fill="#B4DD7F"/>
<path d="M54.4375 3.1875V9.46875C54.4375 10.6203 53.4953 11.5625 52.3438 11.5625H40.8281L38.1063 15.1952C37.8445 15.5406 37.4258 15.75 36.9861 15.75C36.2219 15.75 35.5938 15.1219 35.5938 14.3577V3.1875C35.5938 2.03594 36.5359 1.09375 37.6875 1.09375H52.3438C53.4953 1.09375 54.4375 2.03594 54.4375 3.1875Z" fill="#FFEAA7"/>
<path d="M50.25 47.1562V59.7188H35.5938V47.1562H39.7812H50.25Z" fill="#E6E9ED"/>
<path d="M29.3125 45.3452V47.1562H27.2188H12.5625H4.1875V45.3452C4.1875 43.8063 4.69 42.2988 5.61125 41.0634C6.71047 39.5978 8.33312 38.6137 10.1442 38.3102L13.6094 37.7344V38.7812C13.6094 40.5191 15.0122 41.9219 16.75 41.9219C17.6189 41.9219 18.4041 41.5659 18.9694 41.0006C19.5347 40.4353 19.8906 39.6502 19.8906 38.7812V37.7344L23.3558 38.3102C25.1669 38.6137 26.7895 39.5978 27.8888 41.0634C28.81 42.2988 29.3125 43.8063 29.3125 45.3452Z" fill="#4FC1E9"/>
<path d="M29.3125 3.1875V14.3577C29.3125 15.1219 28.6844 15.75 27.9202 15.75C27.4805 15.75 27.0617 15.5406 26.8 15.1952L24.0781 11.5625H10.4688C9.31719 11.5625 8.375 10.6203 8.375 9.46875V3.1875C8.375 2.03594 9.31719 1.09375 10.4688 1.09375H27.2188C28.3703 1.09375 29.3125 2.03594 29.3125 3.1875Z" fill="#FFEAA7"/>
<path d="M27.2188 23.8633V24.7636C27.2188 25.7058 26.8838 26.6061 26.2766 27.318L26.1091 27.5169C25.8159 27.3494 25.4809 27.2656 25.125 27.2656H23.0312L20.6967 26.7945C18.8123 26.4177 17.0641 25.4859 15.7031 24.125C14.3212 25.5069 12.6462 26.5433 10.8037 27.1505L10.4688 27.2656H8.375C8.12375 27.2656 7.89344 27.3075 7.67359 27.3913L6.87797 26.1245C6.49063 25.5069 6.28125 24.7845 6.28125 24.0517C6.28125 23.1514 6.58484 22.3034 7.10828 21.6334C7.64219 20.9634 8.375 20.4609 9.25438 20.2411L10.4688 19.9375C11.1178 18.9534 11.9972 18.1787 13.0127 17.6344C14.0177 17.09 15.1588 16.7969 16.3417 16.7969H18.3831C20.0372 16.7969 21.6284 17.3727 22.8952 18.43L25.8055 20.8587C26.7058 21.602 27.2188 22.7013 27.2188 23.8633Z" fill="#B27946"/>
<path d="M26.6011 27.8833C26.9884 28.2602 27.2188 28.7836 27.2188 29.3594C27.2188 30.5109 26.2766 31.4531 25.125 31.4531H23.0312V27.2656H25.125C25.4809 27.2656 25.8159 27.3494 26.1091 27.5169C26.287 27.6111 26.4545 27.7367 26.6011 27.8833Z" fill="#F0D0B4"/>
<path d="M23.0312 27.2656V31.4531C23.0312 33.7772 21.7645 35.8081 19.8906 36.8969C18.9694 37.4308 17.9016 37.7344 16.75 37.7344C15.5984 37.7344 14.5306 37.4308 13.6094 36.8969C11.7355 35.8081 10.4688 33.7772 10.4688 31.4531V27.2656L10.8037 27.1505C12.6462 26.5433 14.3212 25.5069 15.7031 24.125C17.0641 25.4859 18.8123 26.4177 20.6967 26.7945L23.0312 27.2656Z" fill="#F0D0B4"/>
<path d="M19.8906 37.7344V38.7813C19.8906 39.6502 19.5347 40.4353 18.9694 41.0007C18.4041 41.566 17.6189 41.9219 16.75 41.9219C15.0122 41.9219 13.6094 40.5191 13.6094 38.7813V37.7344V36.8969C14.5306 37.4308 15.5984 37.7344 16.75 37.7344C17.9016 37.7344 18.9694 37.4308 19.8906 36.8969V37.7344Z" fill="#F0D0B4"/>
<path d="M10.4688 27.2656V31.4531H8.375C7.79922 31.4531 7.27578 31.2228 6.89891 30.8355C6.51156 30.4586 6.28125 29.9352 6.28125 29.3594C6.28125 28.4591 6.8675 27.6739 7.67359 27.3913C7.89344 27.3075 8.12375 27.2656 8.375 27.2656H10.4688Z" fill="#F0D0B4"/>
<path d="M61.7656 42.9688C61.7656 42.1846 61.5353 41.4581 61.1595 40.83C63.2595 40.607 64.9062 38.8462 64.9062 36.6875C64.9062 34.7403 63.5704 33.0988 61.7656 32.6319V25.1719C61.7656 19.9773 57.5394 15.75 52.3438 15.75H42.9219C40.6125 15.75 38.7344 17.6281 38.7344 19.9375C38.7344 21.9559 40.1696 23.6445 42.0729 24.0381C41.0898 25.6482 39.7812 28.2026 39.7812 30.4062V31.0532L41.875 32.1001V32.8999C41.875 34.3435 42.678 35.6417 43.9688 36.2876C44.4922 36.5493 45.0784 36.6875 45.6626 36.6875H47.1094V39.0346L44.286 39.7172C41.2542 40.4751 39.0955 43.0525 38.7951 46.1094H30.3594V45.3462C30.3594 43.5895 29.7784 41.8465 28.7231 40.4395C27.4564 38.7488 25.6097 37.6265 23.5243 37.279L21.575 36.9545C22.8564 35.8291 23.74 34.2671 23.9944 32.5H25.125C26.8565 32.5 28.2656 31.0909 28.2656 29.3594C28.2656 28.5962 27.9809 27.9053 27.5265 27.3598C28.0029 26.5831 28.2656 25.688 28.2656 24.7678V23.8685C28.2656 22.3893 27.6134 20.998 26.4776 20.0516L23.5693 17.6281C22.1163 16.4169 20.2748 15.75 18.3842 15.75H16.3375C13.7622 15.75 11.3628 16.9633 9.83748 19.0163L8.99894 19.2256C6.7827 19.7805 5.23438 21.7622 5.23438 24.0465C5.23438 24.9792 5.49505 25.89 5.99022 26.6804L6.23519 27.073C5.62277 27.6467 5.23438 28.4559 5.23438 29.3594C5.23438 31.0909 6.64347 32.5 8.375 32.5H9.50562C9.76002 34.2661 10.6436 35.828 11.925 36.9545L9.97567 37.279C7.8903 37.6265 6.04361 38.7488 4.77689 40.4395C3.72164 41.8465 3.14062 43.5885 3.14062 45.3462V46.1094H0V64.9531H64.9062V46.1094H61.7656V42.9688ZM55.4844 46.1094V42.9688C55.4844 41.814 56.4234 40.875 57.5781 40.875C58.7328 40.875 59.6719 41.814 59.6719 42.9688V46.1094H55.4844ZM40.8281 19.9375C40.8281 18.7828 41.7672 17.8438 42.9219 17.8438H52.3438C56.3836 17.8438 59.6719 21.1309 59.6719 25.1719V32.6319C57.8671 33.0978 56.5312 34.7393 56.5312 36.6875H58.625C58.625 35.5328 59.564 34.5938 60.7188 34.5938C61.8735 34.5938 62.8125 35.5328 62.8125 36.6875C62.8125 37.8422 61.8735 38.7812 60.7188 38.7812H58.7517C57.598 38.7812 56.5155 38.3321 55.7011 37.5177C54.8981 36.7137 54.4375 35.6019 54.4375 34.4671V32.7471L55.0426 31.5369C55.3315 30.959 55.4844 30.311 55.4844 29.6651V29.3594C55.4844 27.3159 54.0146 25.6105 52.0757 25.2441L51.7198 24.1784C51.2916 22.8939 50.0951 22.0312 48.7415 22.0312H42.9219C41.7672 22.0312 40.8281 21.0922 40.8281 19.9375ZM51.2969 36.6875V34.5938H45.6626C45.4009 34.5938 45.1392 34.532 44.9047 34.4147C44.3278 34.1258 43.9688 33.5458 43.9688 32.8999V30.8062L41.9221 29.7823C42.2006 27.8121 43.6599 25.354 44.5079 24.125H48.7415C49.1927 24.125 49.5926 24.4129 49.7349 24.8411L50.5421 27.2656H51.2969C52.4516 27.2656 53.3906 28.2047 53.3906 29.3594V29.6651C53.3906 29.9885 53.3142 30.312 53.1697 30.601L52.3438 32.2529V34.4671C52.3438 36.0803 52.9426 37.5972 54.024 38.7812H49.2031V36.6875H51.2969ZM44.7926 41.7481L48.285 40.875H53.9727C53.6126 41.4937 53.3906 42.2024 53.3906 42.9688V46.1094H40.8888C41.1767 44.0156 42.6947 42.2726 44.7926 41.7481ZM36.6406 48.2031H49.2031V58.6719H36.6406V48.2031ZM13.6094 48.2031H26.1719V58.6719H13.6094V48.2031ZM14.6562 38.4724C15.32 38.6713 16.0224 38.7812 16.75 38.7812C17.4776 38.7812 18.18 38.6713 18.8438 38.4724V38.7812C18.8438 39.936 17.9047 40.875 16.75 40.875C15.5953 40.875 14.6562 39.936 14.6562 38.7812V38.4724ZM25.125 30.4062H24.0781V28.3125H25.125C25.7029 28.3125 26.1719 28.7825 26.1719 29.3594C26.1719 29.9362 25.7029 30.4062 25.125 30.4062ZM7.32812 29.3594C7.32812 28.7825 7.79712 28.3125 8.375 28.3125H9.42188V30.4062H8.375C7.79712 30.4062 7.32812 29.9362 7.32812 29.3594ZM10.2981 26.2188H8.375C8.30905 26.2188 8.24728 26.2345 8.18237 26.2386L7.76467 25.5707C7.47992 25.1133 7.32812 24.5867 7.32812 24.0465C7.32812 22.7243 8.2232 21.578 9.50562 21.2566L11.1147 20.8546L11.3397 20.5175C12.4557 18.8425 14.3244 17.8427 16.3365 17.8427H18.3831C19.7859 17.8427 21.1511 18.3368 22.2283 19.235L25.1365 21.6586C25.795 22.2071 26.1719 23.0132 26.1719 23.8685V24.7678C26.1719 25.3048 26.0159 25.8272 25.7353 26.2805C25.5375 26.2418 25.3344 26.2188 25.125 26.2188H23.1349L20.9061 25.7728C19.2091 25.4336 17.666 24.6076 16.4433 23.3849L15.7031 22.6437L14.963 23.3849C13.7078 24.6401 12.1532 25.6 10.4688 26.1622L10.2981 26.2188ZM11.5156 31.4531V28.0131C13.0451 27.4509 14.4741 26.6092 15.7094 25.5456C17.0871 26.6888 18.7234 27.4708 20.4947 27.8257L21.9844 28.1241V31.4531C21.9844 34.3394 19.6362 36.6875 16.75 36.6875C13.8638 36.6875 11.5156 34.3394 11.5156 31.4531ZM5.23438 45.3462C5.23438 44.0387 5.66673 42.7426 6.45084 41.6958C7.39303 40.4385 8.76758 39.603 10.318 39.3445L12.5803 38.9676C12.6808 41.188 14.5045 42.9688 16.75 42.9688C18.9955 42.9688 20.8192 41.188 20.9187 38.9665L23.181 39.3434C24.7314 39.602 26.1059 40.4364 27.0481 41.6947C27.8322 42.7416 28.2646 44.0387 28.2646 45.3452V46.1094H5.23438V45.3462ZM62.8125 62.8594H2.09375V48.2031H11.5156V60.7656H28.2656V48.2031H34.5469V60.7656H51.2969V48.2031H62.8125V62.8594Z" fill="black"/>
<path d="M38.7344 50.2969H47.1094V52.3906H38.7344V50.2969Z" fill="black"/>
<path d="M38.7344 54.4844H47.1094V56.5781H38.7344V54.4844Z" fill="black"/>
<path d="M15.7031 50.2969H24.0781V52.3906H15.7031V50.2969Z" fill="black"/>
<path d="M15.7031 54.4844H24.0781V56.5781H15.7031V54.4844Z" fill="black"/>
<path d="M36.9892 16.7969C37.7535 16.7969 38.4852 16.4315 38.9438 15.8201L41.3516 12.6094H52.3438C54.0753 12.6094 55.4844 11.2003 55.4844 9.46875V3.1875C55.4844 1.45597 54.0753 0.046875 52.3438 0.046875H37.6875C35.956 0.046875 34.5469 1.45597 34.5469 3.1875V14.3545C34.5469 15.7008 35.643 16.7969 36.9892 16.7969ZM36.6406 3.1875C36.6406 2.61067 37.1096 2.14062 37.6875 2.14062H52.3438C52.9216 2.14062 53.3906 2.61067 53.3906 3.1875V9.46875C53.3906 10.0456 52.9216 10.5156 52.3438 10.5156H40.3047L37.2698 14.5628C37.0887 14.8057 36.6406 14.6571 36.6406 14.3545V3.1875Z" fill="black"/>
<path d="M10.4688 12.6094H23.5547L25.9625 15.8201C26.421 16.4315 27.1528 16.7969 27.917 16.7969C29.2633 16.7969 30.3594 15.7008 30.3594 14.3545V3.1875C30.3594 1.45597 28.9503 0.046875 27.2188 0.046875H10.4688C8.73722 0.046875 7.32812 1.45597 7.32812 3.1875V9.46875C7.32812 11.2003 8.73722 12.6094 10.4688 12.6094ZM9.42188 3.1875C9.42188 2.61067 9.89088 2.14062 10.4688 2.14062H27.2188C27.7966 2.14062 28.2656 2.61067 28.2656 3.1875V14.3545C28.2656 14.6571 27.8176 14.8057 27.6365 14.5639L24.6016 10.5156H10.4688C9.89088 10.5156 9.42188 10.0456 9.42188 9.46875V3.1875Z" fill="black"/>
<path d="M24.0781 4.23438H26.1719V6.32812H24.0781V4.23438Z" fill="black"/>
<path d="M11.5156 4.23438H13.6094V6.32812H11.5156V4.23438Z" fill="black"/>
<path d="M15.7031 4.23438H17.7969V6.32812H15.7031V4.23438Z" fill="black"/>
<path d="M19.8906 4.23438H21.9844V6.32812H19.8906V4.23438Z" fill="black"/>
<path d="M38.7344 4.23438H51.2969V6.32812H38.7344V4.23438Z" fill="black"/>
</svg>
