<svg width="20" height="18" viewBox="0 0 20 18" fill="none" xmlns="http://www.w3.org/2000/svg">
<path d="M9.75586 16.8123H13.4857C13.7884 16.8123 14.0338 16.5669 14.0338 16.2643V1.73555C14.0338 1.43287 13.7884 1.1875 13.4857 1.1875H9.75586V16.8123Z" fill="#FFEEE7"/>
<path d="M14.0334 1.73569V16.2643C14.0334 16.5669 13.788 16.8122 13.4855 16.8122H12.7744C13.077 16.8122 13.3224 16.5669 13.3224 16.2643V1.73569C13.3224 1.43308 13.077 1.18774 12.7744 1.18774H13.4855C13.788 1.18774 14.0334 1.43312 14.0334 1.73569Z" fill="#FFE2DB"/>
<path d="M9.75549 0.81605V17.1841C9.75549 17.5289 9.44093 17.7881 9.10252 17.722L1.46266 16.2318C1.20529 16.1816 1.01953 15.9561 1.01953 15.6939V2.30633C1.01953 2.0441 1.20529 1.81861 1.46266 1.76842L9.10252 0.278139C9.44093 0.212127 9.75549 0.471283 9.75549 0.81605Z" fill="#E19974"/>
<path d="M9.756 0.816096V17.1839C9.756 17.5287 9.44125 17.788 9.10288 17.7218L8.76953 17.6567C8.93012 17.5623 9.04065 17.3881 9.04065 17.1839V0.816096C9.04065 0.611885 8.93012 0.437663 8.76953 0.343268L9.10288 0.278185C9.44125 0.211995 9.756 0.471293 9.756 0.816096Z" fill="#DC8758"/>
<path d="M11.7957 7.41596H11.4064C11.2526 7.41596 11.1279 7.54063 11.1279 7.6944V10.3058C11.1279 10.4596 11.2526 10.5842 11.4064 10.5842H14.9369C15.053 10.5842 15.1471 10.6784 15.1471 10.7945V11.5594C15.1471 11.8307 15.4655 11.9769 15.6713 11.8L18.6489 9.24076C18.7962 9.11417 18.7962 8.88611 18.6489 8.75947L15.6712 6.20009C15.4655 6.02326 15.1471 6.16942 15.1471 6.44071V7.20561C15.1471 7.32175 15.053 7.41589 14.9368 7.41589H13.9397H11.7957V7.41596Z" fill="#C8EFFE"/>
<path d="M11.1279 9.85188C11.7998 9.85056 13.9578 9.85663 14.4159 9.85663H14.4672H15.3409C15.5143 9.85663 15.6549 9.99718 15.6549 10.1705V10.4127C15.6549 10.5559 15.823 10.6331 15.9316 10.5398L18.2907 8.51294C18.3027 8.50251 18.3138 8.49145 18.3239 8.47974L18.6489 8.75913C18.7961 8.8858 18.7961 9.11408 18.6489 9.24046L15.6714 11.7998C15.4656 11.9766 15.1471 11.8304 15.1471 11.5591V10.7941C15.1471 10.6781 15.0531 10.5841 14.9371 10.5841H11.4064C11.2526 10.5841 11.1279 10.4594 11.1279 10.3057V9.85188Z" fill="#99E6FC"/>
<path d="M7.67367 9.74035H7.52655C7.37867 9.74035 7.25879 9.8602 7.25879 10.0081C7.25879 10.156 7.37867 10.2759 7.52655 10.2759H7.67367C8.12819 10.2759 8.49798 9.91729 8.49798 9.47656V8.52344C8.49798 8.08271 8.12819 7.72412 7.67367 7.72412H7.52655C7.37867 7.72412 7.25879 7.84397 7.25879 7.99188C7.25879 8.13979 7.37867 8.25964 7.52655 8.25964H7.67367C7.8329 8.25964 7.96246 8.37796 7.96246 8.52344V9.47656C7.9625 9.62204 7.83294 9.74035 7.67367 9.74035Z" fill="black"/>
<path d="M18.8232 8.55633L15.8456 5.99698C15.67 5.84607 15.4304 5.8124 15.2201 5.90894C15.0098 6.00551 14.8791 6.20922 14.8791 6.44067V7.14806H14.3013V1.7356C14.3013 1.28577 13.9354 0.919793 13.4855 0.919793H12.4873C12.3394 0.919793 12.2195 1.03964 12.2195 1.18755C12.2195 1.33546 12.3394 1.45531 12.4873 1.45531H13.4855C13.6401 1.45531 13.7658 1.58102 13.7658 1.7356V7.14806H11.4061C11.1049 7.14806 10.8599 7.39308 10.8599 7.69429V10.3057C10.8599 10.6069 11.1049 10.8519 11.4061 10.8519H13.7658V16.2643C13.7658 16.4189 13.6401 16.5446 13.4855 16.5446H10.0234V1.45535H11.2712C11.4191 1.45535 11.539 1.3355 11.539 1.18759C11.539 1.03968 11.4191 0.919828 11.2712 0.919828H10.0234V0.815973C10.0234 0.571348 9.91515 0.34186 9.72633 0.18631C9.53754 0.0307592 9.29152 -0.0316109 9.05143 0.0152292L1.41157 1.50551C1.02939 1.58009 0.751953 1.91679 0.751953 2.30622V7.12228C0.751953 7.27019 0.871838 7.39004 1.01971 7.39004C1.16759 7.39004 1.28747 7.27019 1.28747 7.12228V2.30622C1.28747 2.17244 1.38279 2.05677 1.5141 2.03114L9.15393 0.540859C9.23643 0.524722 9.32094 0.546179 9.38581 0.599623C9.45068 0.653068 9.48788 0.731897 9.48788 0.815973V17.184C9.48788 17.2681 9.45068 17.347 9.38581 17.4004C9.32094 17.4538 9.2364 17.4753 9.15393 17.4592L1.5141 15.9688C1.38279 15.9432 1.28747 15.8275 1.28747 15.6938V8.35173C1.28747 8.20382 1.16759 8.08397 1.01971 8.08397C0.871838 8.08397 0.751953 8.20382 0.751953 8.35173V15.6938C0.751953 16.0832 1.02939 16.4199 1.41157 16.4945L9.05143 17.9848C9.10377 17.995 9.15632 18 9.20859 18C9.39602 18 9.57867 17.9353 9.72633 17.8137C9.91515 17.6582 10.0234 17.4286 10.0234 17.184V17.0802H13.4855C13.9354 17.0802 14.3013 16.7142 14.3013 16.2643V10.8519H14.8791V11.5593C14.8791 11.7907 15.0098 11.9944 15.2201 12.091C15.2995 12.1275 15.3832 12.1454 15.4659 12.1454C15.6023 12.1454 15.7364 12.0969 15.8456 12.003L18.8232 9.44372C18.9526 9.33248 19.0269 9.17075 19.0269 9.00006C19.0269 8.82934 18.9526 8.66761 18.8232 8.55633ZM18.4741 9.03759L15.4965 11.5969C15.4905 11.602 15.4723 11.6175 15.4435 11.6044C15.4146 11.5911 15.4146 11.5672 15.4146 11.5593V10.7944C15.4146 10.5308 15.2002 10.3163 14.9366 10.3163H11.4061C11.4002 10.3163 11.3954 10.3116 11.3954 10.3057V7.69425C11.3954 7.68836 11.4002 7.68354 11.4061 7.68354H14.9366C15.2002 7.68354 15.4146 7.46909 15.4146 7.2055V6.4406C15.4146 6.43275 15.4146 6.40883 15.4435 6.39555C15.4723 6.38234 15.4905 6.39783 15.4965 6.40301L18.4741 8.96243C18.4883 8.97472 18.4913 8.98967 18.4913 9.00003C18.4913 9.01042 18.4883 9.02534 18.4741 9.03759Z" fill="black"/>
</svg>
