<svg width="36" height="36" viewBox="0 0 36 36" fill="none" xmlns="http://www.w3.org/2000/svg">
<path d="M14.5156 5.22585V0.580688H27.2898V5.22585H22.064L18.5801 8.12908V5.22585H14.5156Z" fill="#E6E9ED"/>
<path d="M22.0647 29.6129V35.4193H19.7421L18.5808 33.0967H9.29051L8.12922 35.4193H5.80664V27.2903H22.0647V29.6129Z" fill="#E6E9ED"/>
<path d="M22.0647 24.9678V27.2904H5.80664V24.9678H22.0647Z" fill="#E6E9ED"/>
<path d="M23.8068 22.6451V24.9677H4.64551V22.6451H23.8068Z" fill="#AAB2BD"/>
<path d="M18.5805 33.0968L19.7418 35.4194H8.12891L9.2902 33.0968H18.5805Z" fill="#838F9B"/>
<path d="M28.4515 29.6129L29.0321 35.4194H26.7096L26.1289 29.6129H28.4515Z" fill="#838F9B"/>
<path d="M31.9364 19.1613V26.129C31.9364 28.051 30.3745 29.6129 28.4525 29.6129H22.0654V27.2903H27.2912C28.5744 27.2903 29.6138 26.2509 29.6138 24.9677V19.1613H31.9364Z" fill="#CF9E76"/>
<path d="M28.0925 18.3601C28.3247 18.1279 28.4525 17.8143 28.4525 17.4891C28.4525 17.1523 28.313 16.8387 28.0925 16.6181C27.9124 16.4438 27.6862 16.3162 27.2912 16.2637V16.2581H28.0925C28.3306 16.2581 28.5628 16.3102 28.7718 16.4205C29.2886 16.6762 29.6138 17.2044 29.6138 17.7794V24.9677C29.6138 26.2509 28.5744 27.2903 27.2912 27.2903H22.0654V24.9677H23.8074V22.6452H23.5692C23.7203 22.6452 23.8712 22.5814 23.9758 22.4767L28.0925 18.3601Z" fill="#FCD770"/>
<path d="M17.4194 22.6451H6.96777V19.8927C6.96777 19.1148 7.48463 18.4354 8.23368 18.2205L11.0323 17.4193C11.0323 17.4193 11.6129 18.5806 12.7742 18.5806C13.9355 18.5806 14.5162 17.4193 14.5162 17.4193L17.3148 18.2205C18.0638 18.4354 18.5807 19.1148 18.5807 19.8927V20.3225H17.4194C17.1001 20.3225 16.8098 20.4504 16.6006 20.665C16.386 20.8743 16.2581 21.1646 16.2581 21.4838C16.2581 22.1226 16.7806 22.6451 17.4194 22.6451Z" fill="#69D6F4"/>
<path d="M27.2901 16.2637C27.685 16.3162 27.9113 16.4438 28.0913 16.6181C28.3119 16.8387 28.4514 17.1523 28.4514 17.4891C28.4514 17.8143 28.3235 18.1279 28.0913 18.3601L23.9746 22.4767C23.87 22.5814 23.7192 22.6452 23.568 22.6452H17.4191C16.7803 22.6452 16.2578 22.1226 16.2578 21.4839C16.2578 21.1646 16.3857 20.8743 16.6003 20.6651C16.8095 20.4504 17.0999 20.3226 17.4191 20.3226H22.6449L26.3494 16.6181C26.5816 16.3859 26.8951 16.2581 27.2203 16.2581C27.2436 16.2581 27.2668 16.2581 27.2901 16.2637Z" fill="#F0D0B4"/>
<path d="M29.6131 12.1935V13.3548C29.6131 14.9572 28.3123 16.258 26.7099 16.258C25.1074 16.258 23.8066 14.9572 23.8066 13.3548V12.1935C23.8066 10.5911 25.1074 9.29028 26.7099 9.29028C27.5111 9.29028 28.2369 9.61548 28.7654 10.138C29.2879 10.6665 29.6131 11.3923 29.6131 12.1935Z" fill="#F0D0B4"/>
<path d="M11.0322 15.6774C11.5142 16.0431 12.1181 16.258 12.7742 16.258C13.4302 16.258 14.0341 16.0431 14.5161 15.6774V17.4193C14.5161 17.4193 13.9355 18.5806 12.7742 18.5806C11.6129 18.5806 11.0322 17.4193 11.0322 17.4193V15.6774Z" fill="#F0D0B4"/>
<path d="M15.6775 12.1935V13.3548C15.6775 14.3012 15.2188 15.1489 14.5163 15.6774C14.0343 16.0431 13.4304 16.258 12.7743 16.258C12.1183 16.258 11.5144 16.0431 11.0324 15.6774C10.3298 15.1489 9.87109 14.3012 9.87109 13.3548V12.1935C9.87109 10.5911 11.1719 9.29028 12.7743 9.29028C13.5755 9.29028 14.3013 9.61548 14.8298 10.138C15.3523 10.6665 15.6775 11.3923 15.6775 12.1935Z" fill="#F0D0B4"/>
<path d="M17.9991 9.36857L22.2737 5.80645H27.8701V0H13.9346V5.80645H17.9991V9.36857ZM15.0959 4.64516V1.16129H26.7088V4.64516H21.8535L19.1604 6.88949V4.64516H15.0959Z" fill="black"/>
<path d="M16.2578 2.32263H17.4191V3.48392H16.2578V2.32263Z" fill="black"/>
<path d="M18.5811 2.32263H23.2262V3.48392H18.5811V2.32263Z" fill="black"/>
<path d="M24.3877 2.32263H25.549V3.48392H24.3877V2.32263Z" fill="black"/>
<path d="M29.5576 34.8387L29.0881 30.1383C31.0268 29.8318 32.5161 28.1531 32.5161 26.1291V18.5807H30.1935V17.7783C30.1935 16.989 29.7598 16.2802 29.0623 15.9167C29.7558 15.2797 30.1935 14.3687 30.1935 13.3549V12.1936C30.1935 10.2722 28.6311 8.70972 26.7097 8.70972C24.7883 8.70972 23.2258 10.2722 23.2258 12.1936V13.3549C23.2258 14.8581 24.1844 16.1379 25.5212 16.6255L22.4047 19.742H19.1485C19.0836 18.774 18.4188 17.9303 17.4769 17.661L15.0968 16.9816V15.9445C15.8076 15.3063 16.2581 14.3838 16.2581 13.3549V12.1936C16.2581 10.2722 14.6956 8.70972 12.7742 8.70972C10.8528 8.70972 9.29032 10.2722 9.29032 12.1936V13.3549C9.29032 14.3832 9.74083 15.3058 10.4516 15.9445V16.9822L8.07148 17.6615C7.07973 17.9442 6.3871 18.8628 6.3871 19.8948V22.0646H4.06452V25.5484H5.22581V34.8387H0V36H36V34.8387H29.5576ZM24.3871 25.5484V22.8856L28.5015 18.7712C28.7989 18.4738 28.9758 18.0743 29.0155 17.6575C29.0206 17.6981 29.0323 17.7364 29.0323 17.7783V24.9678C29.0323 25.9281 28.2506 26.7097 27.2903 26.7097H22.6452V25.5484H24.3871ZM22.6452 30.1936H25.6037L26.0681 34.8387H22.6452V30.1936ZM26.7706 30.1936H27.9263L28.3907 34.8387H27.235L26.7706 30.1936ZM30.1935 24.9678V19.742H31.3548V26.1291C31.3548 27.7298 30.0524 29.0323 28.4516 29.0323H22.6452V27.871H27.2903C28.8911 27.871 30.1935 26.5685 30.1935 24.9678ZM24.3871 13.3549V12.1936C24.3871 10.9127 25.4287 9.87101 26.7097 9.87101C27.9906 9.87101 29.0323 10.9127 29.0323 12.1936V13.3549C29.0323 14.6358 27.9906 15.6775 26.7097 15.6775C25.4287 15.6775 24.3871 14.6358 24.3871 13.3549ZM22.8856 20.9033L26.7596 17.0293C26.8809 16.9079 27.0488 16.8387 27.22 16.8387C27.5789 16.8387 27.871 17.1308 27.871 17.4897C27.871 17.661 27.8018 17.8288 27.6804 17.9501L23.566 22.0646H17.4194C17.099 22.0646 16.8387 21.8043 16.8387 21.4839C16.8387 21.1635 17.099 20.9033 17.4194 20.9033H22.8856ZM10.4516 12.1936C10.4516 10.9127 11.4933 9.87101 12.7742 9.87101C14.0551 9.87101 15.0968 10.9127 15.0968 12.1936V13.3549C15.0968 14.6358 14.0551 15.6775 12.7742 15.6775C11.4933 15.6775 10.4516 14.6358 10.4516 13.3549V12.1936ZM12.7742 16.8387C13.1819 16.8387 13.5714 16.7645 13.9355 16.6355V17.2592C13.7915 17.4815 13.3914 18 12.7742 18C12.157 18 11.7569 17.4815 11.6129 17.2592V16.6355C11.9769 16.7645 12.3665 16.8387 12.7742 16.8387ZM7.54839 19.8948C7.54839 19.3785 7.89513 18.9198 8.39044 18.778L10.7825 18.0947C11.1193 18.5336 11.7748 19.1613 12.7742 19.1613C13.7736 19.1613 14.4291 18.5336 14.7659 18.0942L17.158 18.7774C17.6028 18.9047 17.913 19.2915 17.975 19.7414H17.4194C16.4591 19.7414 15.6774 20.5231 15.6774 21.4833C15.6774 21.6878 15.7191 21.8817 15.7843 22.064H7.54839V19.8948ZM5.22581 23.2258H23.2258V24.3871H5.22581V23.2258ZM6.3871 27.871H8.12903V26.7097H6.3871V25.5484H21.4839V26.7097H9.29032V27.871H21.4839V34.8387H20.1009L18.9396 32.5162H8.93139L7.7701 34.8387H6.3871V27.871ZM18.8024 34.8387H9.06861L9.64926 33.6775H18.2217L18.8024 34.8387Z" fill="black"/>
</svg>
