<svg width="36" height="38" viewBox="0 0 36 38" fill="none" xmlns="http://www.w3.org/2000/svg">
<path d="M22.613 31.1921L24.873 37.004C24.9554 37.2159 24.7991 37.4445 24.5717 37.4445H22.8486C22.7152 37.4445 22.5955 37.3627 22.5473 37.2384L21.0176 33.3044C20.9819 33.2127 20.8937 33.1524 20.7953 33.1524H19.3044C19.1727 33.1524 19.066 33.2591 19.066 33.3907V36.9551C19.066 37.2254 18.8469 37.4445 18.5767 37.4445H17.1697C16.8994 37.4445 16.6804 37.2253 16.6804 36.9551V33.3907C16.6804 33.2591 16.5737 33.1524 16.442 33.1524H14.951C14.8527 33.1524 14.7645 33.2127 14.7288 33.3044L13.2052 37.2228C13.1532 37.3565 13.0245 37.4445 12.8812 37.4445H11.2103C10.9657 37.4445 10.7976 37.1988 10.8863 36.9708L13.1333 31.1921L14.5732 27.598H21.2764L22.613 31.1921Z" fill="#CAC5CB"/>
<path d="M23.4321 27.7924H12.2412V30.2996C12.2412 30.7925 12.6408 31.1921 13.1337 31.1921H22.5395C23.0324 31.1921 23.4321 30.7925 23.4321 30.2996V27.7924Z" fill="#F8F3F2"/>
<path d="M1.31641 4.27734H34.4335V27.5862H1.31641V4.27734Z" fill="#F9F7F7"/>
<path d="M5.71298 22.3558V4.27734H1.31641V27.5862H34.4335V24.4735H7.83063C6.6611 24.4734 5.71298 23.5254 5.71298 22.3558Z" fill="#F2EAE7"/>
<path d="M20.9966 4.27741H14.751V2.20819C14.751 1.29539 15.4909 0.55542 16.4038 0.55542H19.3439C20.2567 0.55542 20.9966 1.29539 20.9966 2.20819V4.27741Z" fill="#F8F3F2"/>
<path d="M34.4323 5.57827H1.31511C0.895696 5.57827 0.555664 5.23824 0.555664 4.81882V4.14824C0.555664 3.72883 0.895696 3.38879 1.31511 3.38879H34.4322C34.8516 3.38879 35.1916 3.72883 35.1916 4.14824V4.81882C35.1916 5.23824 34.8517 5.57827 34.4323 5.57827Z" fill="#A59CA6"/>
<path d="M34.4323 28.6809H1.31511C0.895696 28.6809 0.555664 28.3409 0.555664 27.9215V27.2509C0.555664 26.8315 0.895696 26.4915 1.31511 26.4915H34.4322C34.8516 26.4915 35.1916 26.8315 35.1916 27.2509V27.9215C35.1916 28.341 34.8517 28.6809 34.4323 28.6809Z" fill="#A59CA6"/>
<path d="M13.2949 19.8146C13.2949 21.3388 14.5306 22.5745 16.0549 22.5745H23.8922L24.9707 23.3573C25.2734 23.5771 25.6976 23.3608 25.6976 22.9868V16.0848C25.6976 14.5605 24.4619 13.3248 22.9376 13.3248H15.432C14.2517 13.3248 13.2949 14.2816 13.2949 15.4619V19.8146Z" fill="#B3E5EE"/>
<path d="M18.4806 18.4059H10.6433L9.56483 19.1888C9.26212 19.4085 8.83789 19.1922 8.83789 18.8182V11.9162C8.83789 10.3919 10.0735 9.15625 11.5978 9.15625H18.4806C20.0049 9.15625 21.2405 10.3919 21.2405 11.9162V15.646C21.2405 17.1703 20.0049 18.4059 18.4806 18.4059Z" fill="#FBE372"/>
<path d="M35.7466 4.81873V4.14821C35.7466 3.4232 35.1568 2.8334 34.4319 2.8334H21.5515V2.20814C21.5515 0.990551 20.561 0 19.3434 0H16.4033C15.1857 0 14.1952 0.990551 14.1952 2.20814V2.8334H1.31474C0.589725 2.8334 0 3.4232 0 4.14821V4.8188C0 5.34514 0.311597 5.79899 0.759371 6.00884V26.0609C0.311597 26.2707 0 26.7246 0 27.2509V27.9215C0 28.6465 0.589799 29.2362 1.31474 29.2362H5.95567C6.26238 29.2362 6.51104 28.9876 6.51104 28.6809C6.51104 28.3742 6.26238 28.1255 5.95567 28.1255H1.31474C1.20218 28.1255 1.11073 28.034 1.11073 27.9215V27.2509C1.11073 27.1384 1.20226 27.0468 1.31474 27.0468H34.4318C34.5444 27.0468 34.6358 27.1384 34.6358 27.2509V27.9215C34.6358 28.0341 34.5443 28.1255 34.4318 28.1255H8.32442C8.01771 28.1255 7.76905 28.3742 7.76905 28.6809C7.76905 28.9876 8.01771 29.2362 8.32442 29.2362H11.6854V30.2995C11.6854 30.8301 11.9731 31.2935 12.3998 31.5457L10.1845 37.2431C10.0733 37.5291 10.215 37.8509 10.5008 37.962C10.567 37.9877 10.635 37.9999 10.7019 37.9999C10.9243 37.9999 11.1342 37.8655 11.2197 37.6457L13.5132 31.7473H22.2332L24.5267 37.6457C24.6122 37.8654 24.8221 37.9999 25.0445 37.9999C25.1114 37.9999 25.1795 37.9877 25.2456 37.962C25.5314 37.8509 25.6731 37.529 25.5619 37.2431L23.3324 31.5093C23.7261 31.2502 23.9869 30.805 23.9869 30.2995V29.2362H34.4317C35.1567 29.2362 35.7465 28.6465 35.7465 27.9215V27.2509C35.7465 26.7246 35.4349 26.2707 34.9871 26.0609V6.00877C35.435 5.79891 35.7466 5.34507 35.7466 4.81873ZM22.8763 30.2995C22.8763 30.4854 22.7251 30.6367 22.5392 30.6367H13.1334C12.9475 30.6367 12.7962 30.4855 12.7962 30.2995V29.2362H22.8763V30.2995ZM15.3059 2.20814C15.3059 1.60301 15.7982 1.11073 16.4033 1.11073H19.3434C19.9485 1.11073 20.4408 1.60301 20.4408 2.20814V2.8334H15.3059V2.20814ZM1.11073 4.14821C1.11073 4.03566 1.20226 3.94414 1.31474 3.94414H34.4318C34.5444 3.94414 34.6358 4.03566 34.6358 4.14821V4.8188C34.6358 4.93135 34.5443 5.02288 34.4318 5.02288H30.5925C30.2858 5.02288 30.0372 5.27154 30.0372 5.57825C30.0372 5.88496 30.2858 6.13361 30.5925 6.13361H33.8764V25.9362H1.8701V6.13354H28.2238C28.5305 6.13354 28.7791 5.88488 28.7791 5.57817C28.7791 5.27146 28.5305 5.02281 28.2238 5.02281H1.31474C1.20218 5.02281 1.11073 4.93128 1.11073 4.81873V4.14821Z" fill="black"/>
<path d="M16.4409 32.597H14.95C14.6202 32.597 14.3299 32.7956 14.2102 33.1031L12.6004 37.2432C12.4892 37.5291 12.6309 37.851 12.9167 37.9621C12.9829 37.9878 13.0509 38 13.1178 38C13.3402 38 13.5501 37.8656 13.6356 37.6458L15.1669 33.7077H16.124V37.4444C16.124 37.7511 16.3727 37.9998 16.6794 37.9998C16.9861 37.9998 17.2347 37.7511 17.2347 37.4444V33.3907C17.2347 32.9531 16.8786 32.597 16.4409 32.597Z" fill="black"/>
<path d="M21.5353 33.103C21.4157 32.7956 21.1253 32.597 20.7954 32.597H19.3045C18.8668 32.597 18.5107 32.9531 18.5107 33.3908V37.4445C18.5107 37.7512 18.7594 37.9998 19.0661 37.9998C19.3728 37.9998 19.6215 37.7512 19.6215 37.4445V33.7078H20.5786L22.1099 37.6458C22.1953 37.8655 22.4053 38.0001 22.6276 38.0001C22.6946 38.0001 22.7626 37.9878 22.8288 37.9622C23.1146 37.851 23.2562 37.5291 23.1451 37.2433L21.5353 33.103Z" fill="black"/>
<path d="M22.9369 12.7693H21.7955V11.9161C21.7955 10.088 20.3083 8.60083 18.4802 8.60083H11.5975C9.76942 8.60083 8.28223 10.088 8.28223 11.9161V18.8181C8.28223 19.201 8.49415 19.5469 8.8353 19.7208C8.98147 19.7953 9.13919 19.8321 9.29618 19.8321C9.50566 19.8321 9.71367 19.7666 9.89072 19.638L10.8232 18.9611H12.7389V19.8144C12.7389 21.6425 14.2261 23.1297 16.0542 23.1297H23.7112L24.6436 23.8066C24.8207 23.9352 25.0287 24.0007 25.2382 24.0006C25.3952 24.0006 25.5529 23.9638 25.6991 23.8894C26.0402 23.7154 26.2522 23.3696 26.2522 22.9867V16.0846C26.2522 14.2566 24.765 12.7693 22.9369 12.7693ZM25.1414 22.7955L24.2177 22.125C24.1228 22.0562 24.0086 22.0191 23.8914 22.0191H16.0541C14.8385 22.0191 13.8496 21.0301 13.8496 19.8145V18.9612H15.4972C15.804 18.9612 16.0526 18.7126 16.0526 18.4058C16.0526 18.0991 15.804 17.8505 15.4972 17.8505H10.6428C10.5256 17.8505 10.4114 17.8876 10.3166 17.9564L9.39281 18.627V11.9161C9.39281 10.7005 10.3817 9.71156 11.5973 9.71156H18.4801C19.6957 9.71156 20.6846 10.7005 20.6846 11.9161V15.6459C20.6846 16.8616 19.6957 17.8505 18.4801 17.8505H17.8659C17.5592 17.8505 17.3106 18.0991 17.3106 18.4058C17.3106 18.7126 17.5592 18.9612 17.8659 18.9612H18.4801C20.3081 18.9612 21.7953 17.474 21.7953 15.6459V13.8801H22.9367C24.1524 13.8801 25.1413 14.869 25.1413 16.0846V22.7955H25.1414Z" fill="black"/>
</svg>
