<svg width="32" height="32" viewBox="0 0 32 32" fill="none" xmlns="http://www.w3.org/2000/svg">
<path d="M10 11.5H3.5C1.84312 11.5 0.5 10.1569 0.5 8.5C0.5 6.84775 1.83856 5.5 3.5 5.5H10V11.5Z" fill="#AA7569"/>
<path d="M8 5.5H10V11.5H8V5.5Z" fill="#9A6758"/>
<path d="M30.5 12.5V30.5C30.5 31.0525 30.0525 31.5 29.5 31.5H3.5C1.84312 31.5 0.5 30.1569 0.5 28.5V8.5C0.5 10.1566 1.84244 11.5 3.5 11.5H29.5C30.0525 11.5 30.5 11.9475 30.5 12.5Z" fill="#FEE07D"/>
<path d="M30.5 12.5V30.5C30.5 31.0525 30.0525 31.5 29.5 31.5H26.5C27.0525 31.5 27.5 31.0525 27.5 30.5V12.5C27.5 11.9475 27.0525 11.5 26.5 11.5H29.5C30.0525 11.5 30.5 11.9475 30.5 12.5Z" fill="#C4928A"/>
<path d="M28 11.5H13V1.5C13 0.947688 13.4477 0.5 14 0.5H27C27.5523 0.5 28 0.947688 28 1.5V11.5Z" fill="#B3E5EE"/>
<path d="M28 1.5V11.5H25V1.5C25 0.9475 24.5525 0.5 24 0.5H27C27.5525 0.5 28 0.9475 28 1.5Z" fill="#3F99A9"/>
<path d="M13 11.5H10V3.5C10 2.94769 10.4477 2.5 11 2.5H13V11.5Z" fill="#3F99A9"/>
<path d="M30.625 25H24.5C22.567 25 21 23.433 21 21.5C21 19.5724 22.5617 18 24.5 18H30.625C31.1082 18 31.5 18.3918 31.5 18.875V24.125C31.5 24.6083 31.1082 25 30.625 25Z" fill="#AA7569"/>
<path d="M31.5 18.875V24.125C31.5 24.6081 31.1081 25 30.625 25H27.625C28.1081 25 28.5 24.6081 28.5 24.125V18.875C28.5 18.3919 28.1081 18 27.625 18H30.625C31.1081 18 31.5 18.3919 31.5 18.875Z" fill="#9A6758"/>
<path d="M24.5 22.5C25.0523 22.5 25.5 22.0523 25.5 21.5C25.5 20.9477 25.0523 20.5 24.5 20.5C23.9477 20.5 23.5 20.9477 23.5 21.5C23.5 22.0523 23.9477 22.5 24.5 22.5Z" fill="#FEE07D"/>
<path d="M31 17.5524V12.5C31 11.6729 30.3271 11 29.5 11H28.5V1.5C28.5 0.672875 27.8271 0 27 0H14C13.1729 0 12.5 0.672875 12.5 1.5V2H11C10.1729 2 9.5 2.67287 9.5 3.5V5H3.5C1.57006 5 0 6.57013 0 8.5V28.5C0 30.4299 1.57006 32 3.5 32H29.5C30.3271 32 31 31.3271 31 30.5V25.4476C31.5764 25.2839 32 24.7532 32 24.125V18.875C32 18.2468 31.5764 17.7161 31 17.5524ZM13.5 1.5C13.5 1.22431 13.7243 1 14 1H27C27.2757 1 27.5 1.22431 27.5 1.5V11H25.4749C25.2232 8.47688 23.0882 6.5 20.5 6.5C17.9118 6.5 15.7767 8.47688 15.5251 11H13.5C13.5 9.7025 13.5 2.2545 13.5 1.5ZM24.4676 11H16.5324C16.7793 9.02969 18.4638 7.5 20.5 7.5C22.5362 7.5 24.2207 9.02969 24.4676 11ZM10.5 3.5C10.5 3.22431 10.7243 3 11 3H12.5V11H10.5C10.5 10.2458 10.5 4.54669 10.5 3.5ZM3.5 6H9.5V11C3.09106 11 3.46775 11.0016 3.3725 10.9967C2.11619 10.9343 1.07762 9.927 1.00444 8.64388C0.920812 7.21069 2.06619 6 3.5 6ZM29.5 31H3.5C2.1215 31 1 29.8785 1 28.5C1 9.5985 0.987688 10.9372 1.02494 10.9746C1.60044 11.5507 2.34188 11.9011 3.142 11.9818C3.37031 12.0048 1.70256 12 29.5 12C29.7757 12 30 12.2243 30 12.5V17.5H24.5C22.2944 17.5 20.5 19.2944 20.5 21.5C20.5 23.7056 22.2944 25.5 24.5 25.5H30V30.5C30 30.7757 29.7757 31 29.5 31ZM31 24.125C31 24.3318 30.8318 24.5 30.625 24.5H24.5C22.8458 24.5 21.5 23.1542 21.5 21.5C21.5 19.8458 22.8458 18.5 24.5 18.5H30.625C30.8318 18.5 31 18.6682 31 18.875V24.125Z" fill="black"/>
<path d="M24.5 20C23.6729 20 23 20.6729 23 21.5C23 22.3271 23.6729 23 24.5 23C25.3271 23 26 22.3271 26 21.5C26 20.6729 25.3271 20 24.5 20ZM24.5 22C24.2243 22 24 21.7757 24 21.5C24 21.2243 24.2243 21 24.5 21C24.7757 21 25 21.2243 25 21.5C25 21.7757 24.7757 22 24.5 22Z" fill="black"/>
<path d="M15 7.5C15.2761 7.5 15.5 7.27612 15.5 7V4.43675C16.2018 4.25544 16.7554 3.70181 16.9367 3H18C18.2761 3 18.5 2.77613 18.5 2.5C18.5 2.22387 18.2761 2 18 2H16.5C16.2239 2 16 2.22387 16 2.5C16 3.05137 15.5514 3.5 15 3.5C14.7239 3.5 14.5 3.72388 14.5 4V7C14.5 7.27612 14.7239 7.5 15 7.5Z" fill="black"/>
<path d="M23 3H24.0633C24.2446 3.70181 24.7982 4.25544 25.5 4.43675V7C25.5 7.27612 25.7239 7.5 26 7.5C26.2761 7.5 26.5 7.27612 26.5 7V4C26.5 3.72388 26.2761 3.5 26 3.5C25.4486 3.5 25 3.05137 25 2.5C25 2.22387 24.7761 2 24.5 2H23C22.7239 2 22.5 2.22387 22.5 2.5C22.5 2.77613 22.7239 3 23 3Z" fill="black"/>
<path d="M28 27C27.7239 27 27.5 27.2239 27.5 27.5V28C27.5 28.2757 27.2757 28.5 27 28.5H4.5C4.22387 28.5 4 28.7239 4 29C4 29.2761 4.22387 29.5 4.5 29.5H27C27.8271 29.5 28.5 28.8271 28.5 28V27.5C28.5 27.2239 28.2761 27 28 27Z" fill="black"/>
<path d="M4.5 14.5H27C27.2757 14.5 27.5 14.7243 27.5 15V15.5C27.5 15.7761 27.7239 16 28 16C28.2761 16 28.5 15.7761 28.5 15.5V15C28.5 14.1729 27.8271 13.5 27 13.5H4.5C4.22387 13.5 4 13.7239 4 14C4 14.2761 4.22387 14.5 4.5 14.5Z" fill="black"/>
</svg>
