<svg width="24" height="38" viewBox="0 0 24 38" fill="none" xmlns="http://www.w3.org/2000/svg">
<path d="M17.1119 22.31L20.302 24.5039C21.6525 25.4327 22.4594 26.9668 22.4594 28.606V30.8696C22.4594 31.3489 22.0708 31.7375 21.5915 31.7375H3.55048C3.07117 31.7375 2.68262 31.3489 2.68262 30.8696V28.606C2.68262 26.9668 3.48946 25.4327 4.84001 24.5039L8.03006 22.31L9.37164 21.3618L12.6078 22.6631L15.8384 21.3618L17.1119 22.31Z" fill="#F2BB69"/>
<path d="M9.83887 15.504H15.3039V23.2165H9.83887V15.504Z" fill="#FFD1C2"/>
<path d="M16.3635 3.65915L16.7617 3.7184C18.7761 4.01796 20.172 5.88602 19.8883 7.90276L19.4213 11.2223L19.0891 12.7005H14.1762L13.9873 3.44702H15.4449L16.3635 3.65915Z" fill="#A59CA6"/>
<path d="M17.2582 10.7545L17.7992 7.90033C18.2002 6.6052 18.1679 5.24832 17.7187 3.99507C17.4201 3.86281 17.1004 3.76882 16.7618 3.7184L16.3636 3.65915L15.445 3.44702H13.9873L14.1762 12.7004H14.7245L14.8216 12.6779L17.2582 10.7545Z" fill="#8F8390"/>
<path d="M16.2502 10.1435L14.3318 11.6581L6.68336 13.4251L5.84531 11.0675C4.85136 8.65657 5.07799 5.91469 6.45445 3.69974C7.84887 1.45586 10.5605 0.406496 13.1021 1.12715L13.2706 1.17492C16.0421 1.96078 17.6094 4.88836 16.7266 7.63047L16.2502 10.1435Z" fill="#A59CA6"/>
<path d="M6.81521 14.231C5.94161 14.231 5.2334 13.5228 5.2334 12.6492C5.2334 11.7756 5.94161 11.0674 6.81521 11.0674H10.1419V14.231H6.81521Z" fill="#FFD1C2"/>
<path d="M18.3266 14.2311C19.2002 14.2311 19.9085 13.5229 19.9085 12.6493C19.9085 11.7757 19.2002 11.0675 18.3266 11.0675H15.1523V14.2311H18.3266Z" fill="#FFD1C2"/>
<path d="M12.5714 19.0605C15.3993 19.0605 17.6918 16.768 17.6918 13.9401V10.372C17.6918 9.09583 17.135 7.88321 16.1673 7.05134L15.4655 6.44809C15.3025 6.30795 15.0626 6.30427 14.8954 6.43933L14.1462 7.04442H10.652C8.88423 7.04442 7.45117 8.47749 7.45117 10.2452V13.94C7.45102 16.768 9.74348 19.0605 12.5714 19.0605Z" fill="#FFE0D1"/>
<path d="M10.3734 8.65794H14.842C15.2141 8.65794 15.575 8.53038 15.8645 8.29654L16.4984 7.78456C16.5739 7.72361 16.6609 7.68144 16.7503 7.65958C16.5773 7.44039 16.3824 7.23643 16.1671 7.05146L15.4653 6.44821C15.3023 6.30807 15.0624 6.30439 14.8952 6.43945L14.1461 7.04455H10.6518C9.08515 7.04455 7.78119 8.17083 7.50488 9.6574C8.29274 9.0325 9.28962 8.65794 10.3734 8.65794Z" fill="#FFD1C2"/>
<path d="M13.1236 31.7375V23.7451C13.1236 23.4402 12.8764 23.1931 12.5716 23.1931C12.2667 23.1931 12.0195 23.4402 12.0195 23.7451V31.7375H13.1236Z" fill="#FFEAA2"/>
<path d="M17.1119 22.3101L15.8384 21.3619L12.6078 22.6631L11.5494 22.2376L11.5458 22.2394L11.5488 22.2373L9.37164 21.3618L8.03006 22.31L4.84001 24.5039C3.48946 25.4328 2.68262 26.9668 2.68262 28.606V30.8696C2.68262 31.3489 3.07117 31.7375 3.55048 31.7375H4.91465C4.91428 31.7274 4.9131 31.7175 4.9131 31.7074V29.4437C4.9131 27.8046 5.71994 26.2705 7.07049 25.3416L7.87697 24.787C8.10823 24.628 8.42384 24.6799 8.59195 24.9047C8.85855 25.2612 9.24658 25.5161 9.68548 25.5903C9.94707 25.6344 10.2123 25.6171 10.4626 25.5409L12.5709 24.8993L14.6793 25.541C14.839 25.5895 15.005 25.6143 15.1718 25.6143C15.7024 25.6143 16.209 25.3606 16.5269 24.9356L18.0209 22.938C18.0207 22.9368 18.0206 22.9362 18.0204 22.9351L17.1119 22.3101Z" fill="#FFEAA2"/>
<path d="M9.8385 20.5366L12.571 21.8764V23.7452L10.1412 24.4846C9.90423 24.5567 9.6475 24.4726 9.49912 24.2742L8.03006 22.31C7.85974 22.0823 7.89603 21.7614 8.11279 21.5774L9.25335 20.6095C9.41661 20.4711 9.6464 20.4424 9.8385 20.5366Z" fill="#F9F7F7"/>
<path d="M15.3037 20.5366L12.5713 21.8764V23.7452L15.001 24.4846C15.238 24.5567 15.4947 24.4726 15.6431 24.2742L17.1122 22.31C17.2825 22.0823 17.2462 21.7614 17.0295 21.5774L15.8889 20.6095C15.7256 20.4711 15.4959 20.4424 15.3037 20.5366Z" fill="#F9F7F7"/>
<path d="M20.7569 32.8605L21.3777 34.1183C21.4035 34.1706 21.4534 34.2069 21.5112 34.2153L22.8993 34.417C23.0447 34.4381 23.1028 34.6168 22.9975 34.7194L21.9931 35.6985C21.9513 35.7392 21.9323 35.7979 21.9421 35.8554L22.1792 37.2378C22.2041 37.3827 22.052 37.4932 21.922 37.4248L20.6804 36.7721C20.6287 36.7449 20.5671 36.7449 20.5154 36.7721L19.2739 37.4248C19.1438 37.4932 18.9917 37.3827 19.0166 37.2378L19.2537 35.8554C19.2635 35.7979 19.2445 35.7392 19.2027 35.6985L18.1983 34.7194C18.093 34.6168 18.1511 34.4381 18.2965 34.417L19.6846 34.2153C19.7424 34.2069 19.7923 34.1706 19.8182 34.1183L20.4389 32.8605C20.5039 32.7286 20.6918 32.7286 20.7569 32.8605Z" fill="#FBE88C"/>
<path d="M4.38521 32.8605L3.76444 34.1183C3.7386 34.1706 3.6887 34.2069 3.63092 34.2153L2.24283 34.417C2.09739 34.4381 2.03932 34.6168 2.14457 34.7194L3.14896 35.6985C3.19077 35.7392 3.20984 35.7979 3.19997 35.8554L2.96289 37.2378C2.93802 37.3827 3.09008 37.4932 3.22014 37.4248L4.46168 36.7721C4.51335 36.7449 4.57503 36.7449 4.6267 36.7721L5.86825 37.4248C5.99831 37.4932 6.15037 37.3827 6.12549 37.2378L5.88842 35.8554C5.87855 35.7979 5.89762 35.7392 5.93942 35.6985L6.94382 34.7194C7.04907 34.6168 6.991 34.4381 6.84556 34.417L5.45747 34.2153C5.39969 34.2069 5.34979 34.1706 5.32395 34.1183L4.70318 32.8605C4.63811 32.7286 4.4502 32.7286 4.38521 32.8605Z" fill="#FBE88C"/>
<path d="M6.89409 31.7376V28.6204C6.89409 28.3154 6.64693 28.0684 6.34207 28.0684C6.0372 28.0684 5.79004 28.3154 5.79004 28.6204V31.7376H6.89409Z" fill="#FFEAA2"/>
<path d="M19.3527 28.6204C19.3527 28.3154 19.1056 28.0684 18.8007 28.0684C18.4958 28.0684 18.2487 28.3154 18.2487 28.6204C18.2487 28.6204 18.2438 31.5158 18.2393 31.7376H19.3433C19.3462 31.6035 19.3527 28.6204 19.3527 28.6204Z" fill="#FFEAA2"/>
<path d="M12.8855 29.414L13.968 31.6074C14.013 31.6986 14.1001 31.7619 14.2008 31.7765L16.6213 32.1283C16.8749 32.1651 16.9761 32.4768 16.7926 32.6556L15.0411 34.3629C14.9682 34.434 14.935 34.5363 14.9522 34.6366L15.3657 37.0473C15.409 37.2999 15.1439 37.4926 14.9171 37.3732L12.7521 36.235C12.662 36.1877 12.5544 36.1877 12.4643 36.235L10.2993 37.3732C10.0725 37.4925 9.80737 37.2999 9.85073 37.0473L10.2642 34.6366C10.2815 34.5363 10.2482 34.434 10.1753 34.3629L8.42377 32.6556C8.24028 32.4768 8.34156 32.1651 8.59512 32.1283L11.0157 31.7765C11.1163 31.7619 11.2034 31.6986 11.2485 31.6074L12.3309 29.414C12.4444 29.1841 12.7721 29.1841 12.8855 29.414Z" fill="#FBE88C"/>
<path d="M15.3658 37.0473L15.3026 36.6793L12.8498 35.3898C12.7439 35.3341 12.6174 35.3341 12.5115 35.3898L11.1933 36.0828C11.0642 36.1507 10.9133 36.0411 10.9379 35.8974L11.2469 34.096C11.2641 33.9957 11.2308 33.8934 11.1579 33.8223L10.303 32.989C10.1428 32.8328 10.2312 32.5606 10.4527 32.5284L11.8482 32.3256C11.9489 32.311 12.036 32.2477 12.081 32.1565L13.16 29.9701L12.8855 29.4139C12.7721 29.1841 12.4444 29.1841 12.331 29.4139L11.2485 31.6073C11.2034 31.6986 11.1164 31.7618 11.0157 31.7764L8.59514 32.1282C8.3415 32.1651 8.2403 32.4767 8.42379 32.6556L10.1753 34.3629C10.2482 34.4339 10.2815 34.5362 10.2642 34.6365L9.85074 37.0473C9.80739 37.2999 10.0726 37.4925 10.2994 37.3733L12.4643 36.2351C12.5544 36.1877 12.662 36.1877 12.7521 36.2351L14.9171 37.3733C15.144 37.4925 15.4091 37.2999 15.3658 37.0473Z" fill="#FBE372"/>
<path d="M21.2711 23.342C20.9789 24.0862 20.4353 24.6169 19.6672 24.9569C19.5025 25.0298 19.5084 25.264 19.6757 25.3306C20.4135 25.6244 20.9595 26.1437 21.2648 26.9437C21.3282 27.1097 21.5539 27.1238 21.6362 26.9664C22.01 26.2516 22.5867 25.7169 23.3362 25.3357C23.4847 25.2601 23.4865 25.0514 23.3393 24.9735C22.5867 24.5753 22.0175 24.0274 21.6376 23.3247C21.5559 23.1735 21.3338 23.182 21.2711 23.342Z" fill="#FBE88C"/>
<path d="M2.18105 16.6656C1.90503 17.3688 1.39128 17.8704 0.665402 18.1916C0.509805 18.2605 0.515398 18.4818 0.673499 18.5448C1.37067 18.8225 1.88663 19.3131 2.17516 20.0692C2.235 20.226 2.4483 20.2394 2.5261 20.0906C2.87925 19.4151 3.42421 18.9099 4.13257 18.5496C4.27286 18.4782 4.27455 18.281 4.13544 18.2073C3.42436 17.831 2.88646 17.3132 2.52742 16.6492C2.45021 16.5064 2.24037 16.5145 2.18105 16.6656Z" fill="#FBE88C"/>
<path d="M23.0113 31.7375V29.0655C23.0113 28.7605 22.7641 28.5134 22.4593 28.5134C22.1544 28.5134 21.9072 28.7605 21.9072 29.0655V31.7375C21.9072 32.0424 22.1544 32.2895 22.4593 32.2895C22.7641 32.2895 23.0113 32.0424 23.0113 31.7375Z" fill="black"/>
<path d="M23.5968 24.4856C22.9327 24.1341 22.4504 23.6684 22.1226 23.062C21.9828 22.8034 21.7028 22.6481 21.4096 22.6658C21.1146 22.6838 20.8644 22.8656 20.7566 23.1402C20.5231 23.7351 20.0934 24.1642 19.4431 24.452C19.1647 24.5752 18.9886 24.8512 18.9943 25.1553C19 25.4603 19.187 25.7303 19.4707 25.8433C20.0918 26.0907 20.5097 26.515 20.7483 27.1405C20.8545 27.4189 21.1146 27.61 21.4108 27.6274C21.4255 27.6283 21.4402 27.6287 21.4548 27.6287C21.7341 27.6287 21.9936 27.4726 22.1247 27.2221C22.4369 26.6251 22.9148 26.1689 23.5858 25.8277C23.839 25.6988 23.9977 25.4429 23.9999 25.1597C24.0023 24.8765 23.8477 24.6181 23.5968 24.4856ZM21.4933 26.1576C21.2391 25.7393 20.9056 25.3968 20.4952 25.1325C20.9068 24.8601 21.2402 24.5224 21.4925 24.1225C21.7852 24.516 22.143 24.8589 22.5634 25.1485C22.1399 25.432 21.7822 25.7692 21.4933 26.1576Z" fill="black"/>
<path d="M2.31246 20.7455C2.32696 20.7464 2.34139 20.7468 2.35574 20.7468C2.63087 20.7468 2.88657 20.593 3.0156 20.3464C3.30758 19.7879 3.75487 19.361 4.38315 19.0415C4.63252 18.9147 4.78885 18.6627 4.79106 18.3837C4.79334 18.1048 4.6412 17.8502 4.39382 17.7193C3.77172 17.3902 3.32017 16.9542 3.01324 16.3866C2.87553 16.1319 2.60069 15.979 2.31091 15.9963C2.02033 16.014 1.77376 16.1931 1.66747 16.4638V16.4639C1.4499 17.0182 1.04913 17.4183 0.442341 17.6868C0.168021 17.8081 -0.00546252 18.0802 0.000131352 18.3798C0.00579883 18.6802 0.190028 18.9463 0.469501 19.0576C1.04795 19.288 1.43724 19.6832 1.6596 20.266C1.76441 20.5402 2.02062 20.7285 2.31246 20.7455ZM2.3932 17.4565C2.65818 17.805 2.97769 18.1111 3.34946 18.3725C2.97533 18.6281 2.65626 18.9289 2.39446 19.2725C2.16305 18.9035 1.86554 18.5977 1.50378 18.3573C1.86628 18.1106 2.16341 17.8096 2.3932 17.4565Z" fill="black"/>
<path d="M16.7004 31.5819L14.4062 31.2486L13.3802 29.1697C13.3185 29.0445 13.2297 28.9396 13.1231 28.86V24.4902L14.84 25.0127C14.9488 25.0458 15.0601 25.0618 15.1702 25.0618C15.5236 25.0618 15.8664 24.8971 16.085 24.6049L17.2363 23.0655L18.0504 23.6254C18.146 23.6911 18.2549 23.7226 18.3627 23.7226C18.5383 23.7226 18.711 23.6389 18.8181 23.4833C18.9909 23.2321 18.9273 22.8885 18.6761 22.7157L17.7652 22.0892C17.7968 21.7459 17.6664 21.394 17.3864 21.1564L16.2459 20.1886C16.1294 20.0898 15.9962 20.0192 15.8556 19.9768V18.5629C15.9586 18.4898 16.06 18.4142 16.1581 18.334C16.3942 18.141 16.4292 17.7932 16.2362 17.5571C16.0433 17.3211 15.6956 17.2862 15.4594 17.479C14.6471 18.1429 13.6214 18.5084 12.5711 18.5084C10.0521 18.5084 8.00273 16.459 8.00273 13.94V10.2452C8.00273 8.78471 9.19099 7.59653 10.6516 7.59653H14.1458C14.2721 7.59653 14.3945 7.55325 14.4927 7.4739L15.1727 6.9246L15.8072 7.47C16.6539 8.19779 17.1395 9.25548 17.1395 10.372V13.9401C17.1395 14.5889 17.005 15.2175 16.7398 15.8083C16.6149 16.0864 16.7392 16.4131 17.0173 16.538C17.2954 16.6629 17.6221 16.5387 17.747 16.2605C17.9602 15.7857 18.1042 15.2911 18.1802 14.7831H18.327C19.5035 14.7831 20.4608 13.8258 20.4608 12.6493C20.4608 12.1343 20.2774 11.6615 19.9727 11.2925L20.4352 8.00429C20.7598 5.69637 19.1485 3.53979 16.8433 3.19709L16.7259 3.17965C15.9865 1.93729 14.8225 1.04124 13.4214 0.643932L13.253 0.596237C11.3141 0.0464184 9.1954 0.442921 7.58562 1.65686C7.34221 1.84043 7.29371 2.18659 7.47728 2.43C7.66077 2.67348 8.00685 2.72191 8.25041 2.53841C9.5858 1.5313 11.3434 1.20244 12.9519 1.65848L13.1203 1.70618C14.3153 2.04505 15.2963 2.83474 15.8826 3.92989C16.3153 4.73828 16.4894 5.63344 16.3982 6.52235L15.825 6.02958C15.4599 5.71581 14.9229 5.70756 14.5482 6.01015L13.9509 6.49269H10.6517C8.58236 6.49269 6.89882 8.17615 6.89882 10.2454V10.5156H6.81551C6.62082 10.5156 6.4324 10.5424 6.2531 10.5914C5.4757 8.47888 5.68532 6.08949 6.83221 4.14349C6.987 3.88087 6.89956 3.54244 6.63694 3.38765C6.37425 3.23279 6.03582 3.3203 5.88103 3.58292C4.53247 5.87104 4.3146 8.69403 5.28897 11.1606C4.91366 11.5454 4.68174 12.0707 4.68174 12.6494C4.68174 13.826 5.63895 14.7832 6.81558 14.7832H6.96183C7.19442 16.3372 8.06022 17.686 9.28675 18.5605V19.9768C9.14616 20.0193 9.01294 20.0898 8.8965 20.1886L7.75586 21.1564C7.47588 21.3941 7.34552 21.746 7.3771 22.0893L4.52746 24.0491C3.02676 25.0811 2.13086 26.7846 2.13086 28.606V31.7375C2.13086 32.0425 2.37802 32.2896 2.68289 32.2896C2.98775 32.2896 3.23491 32.0425 3.23491 31.7375V28.6059C3.23491 27.1481 3.95196 25.7847 5.1531 24.9586L7.90602 23.0654L9.0574 24.6048C9.276 24.8971 9.6187 25.0618 9.97207 25.0618C10.0823 25.0618 10.1935 25.0457 10.3023 25.0126L12.0193 24.4901V28.9216C11.9453 28.9912 11.8827 29.0746 11.8358 29.1697L10.8098 31.2486L8.51553 31.5819C8.18873 31.6295 7.92228 31.854 7.82027 32.1682C7.71825 32.4823 7.80179 32.8205 8.03821 33.0509L9.69834 34.6691L9.3064 36.954C9.25053 37.2794 9.38184 37.6023 9.64895 37.7963C9.91606 37.9903 10.2636 38.0156 10.556 37.8619L12.608 36.7831L14.66 37.8619C14.7871 37.9288 14.9246 37.9618 15.0615 37.9618C15.2394 37.9618 15.416 37.906 15.567 37.7963C15.8341 37.6022 15.9654 37.2794 15.9095 36.954L15.5176 34.6691L17.1777 33.0509C17.4142 32.8205 17.4977 32.4822 17.3957 32.1682C17.2936 31.854 17.0272 31.6294 16.7004 31.5819ZM18.3268 13.679H18.2435V11.6195H18.3268C18.8946 11.6195 19.3566 12.0814 19.3566 12.6493C19.3566 13.217 18.8946 13.679 18.3268 13.679ZM19.3418 7.85038L18.9537 10.6095C18.7554 10.5484 18.5449 10.5154 18.3269 10.5154H18.2436V10.372C18.2436 9.33938 17.9197 8.34669 17.3343 7.52138C17.6082 6.49777 17.5889 5.44016 17.2856 4.44335C18.66 4.93951 19.5527 6.35101 19.3418 7.85038ZM5.78557 12.6492C5.78557 12.0814 6.24751 11.6195 6.81536 11.6195H6.89868V13.679H6.81536C6.24758 13.679 5.78557 13.217 5.78557 12.6492ZM16.6621 21.9897L15.2009 23.9435C15.1918 23.9557 15.1759 23.9606 15.1615 23.9564L13.123 23.336V22.2205L15.5383 21.0362L16.6621 21.9897ZM12.5711 19.6125C13.3231 19.6125 14.0647 19.4608 14.7516 19.1749V20.1924L12.5711 21.2615L10.3906 20.1924V19.1761C11.0623 19.4568 11.7988 19.6125 12.5711 19.6125ZM9.98046 23.9564C9.96611 23.961 9.95028 23.9556 9.94123 23.9435L8.47998 21.9897L9.60376 21.0362L12.0191 22.2205V23.336L9.98046 23.9564ZM14.6556 33.9675C14.4526 34.1654 14.3599 34.4503 14.4078 34.7299L14.7381 36.6557L13.0087 35.7464C12.8832 35.6805 12.7455 35.6475 12.6079 35.6475C12.4702 35.6475 12.3326 35.6804 12.2071 35.7464L10.4777 36.6557L10.808 34.7297C10.8558 34.4503 10.7632 34.1653 10.5602 33.9676L9.16103 32.6038L11.0948 32.3228C11.3753 32.282 11.6176 32.1059 11.7431 31.8517L12.6079 30.0995L13.4727 31.8518C13.5981 32.1059 13.8404 32.2821 14.1211 32.3228L16.0547 32.6038L14.6556 33.9675Z" fill="black"/>
<path d="M22.9792 33.8706L21.7861 33.6972L21.2525 32.6161V32.616C21.1287 32.3653 20.8781 32.2096 20.5984 32.2096C20.3188 32.2097 20.0682 32.3654 19.9445 32.6161L19.4109 33.6972L18.2178 33.8706C17.941 33.9108 17.7154 34.101 17.629 34.3669C17.5426 34.6328 17.6133 34.9194 17.8135 35.1145L18.6769 35.9562L18.4731 37.1443C18.4257 37.4201 18.5369 37.6934 18.7632 37.8578C18.8911 37.9507 19.0406 37.9979 19.1912 37.9979C19.3072 37.9979 19.4237 37.9699 19.5313 37.9133L20.5985 37.3523L21.6655 37.9132C21.913 38.0434 22.2073 38.0221 22.4336 37.8579C22.6599 37.6935 22.7711 37.4201 22.7238 37.1445L22.52 35.9562L23.3833 35.1146C23.5836 34.9194 23.6543 34.6329 23.5679 34.367C23.4815 34.101 23.2559 33.9108 22.9792 33.8706ZM21.6082 35.3031C21.4364 35.4706 21.3581 35.7119 21.3985 35.9487L21.5073 36.5828L20.938 36.2835C20.8316 36.2275 20.7151 36.1996 20.5984 36.1996C20.4819 36.1996 20.3653 36.2275 20.2591 36.2834L19.6896 36.5828L19.7984 35.9487C19.839 35.7121 19.7606 35.4707 19.5886 35.3031L19.1279 34.854L19.7641 34.7615C20.0018 34.7272 20.2073 34.5781 20.3138 34.3625L20.5985 33.7855L20.8833 34.3626C20.9897 34.5781 21.1952 34.7272 21.4324 34.7614L22.0691 34.854L21.6082 35.3031Z" fill="black"/>
<path d="M6.92539 33.8706L5.73228 33.6971L5.19865 32.6161C5.07492 32.3653 4.82438 32.2095 4.54476 32.2095H4.54468C4.26506 32.2095 4.01444 32.3652 3.89072 32.6159V32.616L3.35716 33.6971L2.16412 33.8705C1.88737 33.9107 1.66171 34.1009 1.57529 34.3669C1.48888 34.6328 1.55962 34.9193 1.75989 35.1145L2.62319 35.956L2.41938 37.1444C2.37213 37.42 2.48334 37.6934 2.7096 37.8577C2.83745 37.9506 2.98701 37.9977 3.13753 37.9977C3.25346 37.9977 3.36997 37.9697 3.47758 37.9132L4.54476 37.3522L5.61179 37.9131C5.85932 38.0433 6.15366 38.022 6.37999 37.8577C6.60632 37.6933 6.71746 37.4199 6.67013 37.1444L6.46633 35.956L7.32962 35.1145C7.5299 34.9193 7.60063 34.6327 7.51422 34.3668C7.42774 34.1009 7.20214 33.9107 6.92539 33.8706ZM5.55445 35.303C5.38251 35.4706 5.30413 35.712 5.34475 35.9486L5.45354 36.5827L4.88422 36.2834C4.67158 36.1716 4.41779 36.1716 4.2053 36.2834L3.63583 36.5827L3.74461 35.9484C3.78509 35.7118 3.70663 35.4706 3.53477 35.303L3.07408 34.8539L3.71031 34.7614C3.94805 34.7271 4.15348 34.578 4.25998 34.3624L4.54468 33.7854L4.82953 34.3625C4.93589 34.578 5.14139 34.7271 5.37861 34.7613L6.01528 34.8539L5.55445 35.303Z" fill="black"/>
<path d="M6.89409 31.3233V28.6203C6.89409 28.3153 6.64693 28.0682 6.34207 28.0682C6.0372 28.0682 5.79004 28.3153 5.79004 28.6203V31.3233C5.79004 31.6282 6.0372 31.8753 6.34207 31.8753C6.64693 31.8753 6.89409 31.6282 6.89409 31.3233Z" fill="black"/>
<path d="M18.248 28.6203V31.3233C18.248 31.6282 18.4952 31.8753 18.8001 31.8753C19.1049 31.8753 19.3521 31.6282 19.3521 31.3233V28.6203C19.3521 28.3153 19.1049 28.0682 18.8001 28.0682C18.4952 28.0682 18.248 28.3154 18.248 28.6203Z" fill="black"/>
</svg>
