<svg width="38" height="33" viewBox="0 0 38 33" fill="none" xmlns="http://www.w3.org/2000/svg">
<path d="M9.17065 29.9481H3.25879V16.5448C3.25879 16.1396 3.58731 15.811 3.99255 15.811H8.43688C8.84213 15.811 9.17065 16.1396 9.17065 16.5448V29.9481Z" fill="#FBE88C"/>
<path d="M17.7078 29.948H11.7959V14.7775C11.7959 14.3722 12.1244 14.0437 12.5297 14.0437H16.974C17.3792 14.0437 17.7078 14.3722 17.7078 14.7775V29.948Z" fill="#B3E5EE"/>
<path d="M26.2439 29.9481H20.332V12.6093C20.332 12.204 20.6606 11.8755 21.0658 11.8755H25.8096C26.0494 11.8755 26.2439 12.0699 26.2439 12.3098V29.9481Z" fill="#FBE88C"/>
<path d="M34.0463 9.36511C34.4515 9.36511 34.78 9.69363 34.78 10.0989V29.6511H28.8682V10.8332C28.8682 10.0224 29.5254 9.36511 30.3362 9.36511H34.0463Z" fill="#B3E5EE"/>
<path d="M5.12614 18.4125C5.12614 17.8755 5.56139 17.4403 6.09833 17.4403H9.17072V16.5447C9.17072 16.1394 8.8422 15.8109 8.43696 15.8109H3.99255C3.58731 15.8109 3.25879 16.1394 3.25879 16.5447V29.9481H5.12607V18.4125H5.12614Z" fill="#FBE372"/>
<path d="M13.6633 16.4068C13.6633 16.0016 13.9918 15.6731 14.397 15.6731H17.7078V14.7775C17.7078 14.3722 17.3792 14.0437 16.974 14.0437H12.5297C12.1244 14.0437 11.7959 14.3722 11.7959 14.7775V29.948H13.6632V16.4068H13.6633Z" fill="#86D7E5"/>
<path d="M22.1993 14.2386C22.1993 13.8334 22.5278 13.5049 22.9331 13.5049H26.2438V12.3098C26.2438 12.0699 26.0494 11.8755 25.8096 11.8755H21.0658C20.6606 11.8755 20.332 12.204 20.332 12.6093V29.9481H22.1993V14.2386Z" fill="#FBE372"/>
<path d="M30.7364 11.8947C30.7364 11.3975 31.1395 10.9944 31.6367 10.9944H34.7809V10.0988C34.7809 9.69351 34.4524 9.36499 34.0472 9.36499H30.3372C29.5264 9.36499 28.8691 10.0223 28.8691 10.833V29.6509H30.7364V11.8947Z" fill="#86D7E5"/>
<path d="M36.9684 32.1839H1.00702C0.786351 32.1839 0.607422 32.0049 0.607422 31.7843V30.2578C0.607422 29.2663 1.41115 28.4625 2.40265 28.4625H35.5728C36.5643 28.4625 37.368 29.2663 37.368 30.2578V31.7843C37.3679 32.0049 37.1891 32.1839 36.9684 32.1839Z" fill="#A59CA6"/>
<path d="M36.9092 0.578112L33.1366 1.84755C32.8269 1.95176 32.7623 2.36116 33.0248 2.55561L34.0706 3.3303C26.941 13.3735 15.38 19.3548 3.04337 19.3548H1.67077C1.05547 19.3548 0.556641 19.8536 0.556641 20.4689C0.556641 21.0842 1.05547 21.5831 1.67077 21.5831H3.04337C16.0874 21.5831 28.3125 15.2664 35.8616 4.65716L36.6821 5.26502C36.9446 5.45948 37.3174 5.27839 37.3269 4.95188L37.4423 0.973033C37.4505 0.691753 37.1759 0.488313 36.9092 0.578112Z" fill="#E79098"/>
<path d="M35.5729 27.9056H35.3379V10.0989C35.3379 9.38709 34.7589 8.80804 34.0471 8.80804H33.2231C34.2021 7.73566 35.1247 6.6118 35.9834 5.44041L36.3509 5.71263C36.6397 5.92661 37.0199 5.96204 37.3432 5.80495C37.6665 5.64801 37.8738 5.32721 37.8842 4.96802L37.9996 0.989096C38.0086 0.674986 37.8633 0.375731 37.6107 0.188706C37.3582 0.00168125 37.0297 -0.0500144 36.7319 0.0501828L32.9593 1.31969C32.6188 1.43423 32.3723 1.72591 32.3162 2.08087C32.2602 2.43583 32.4047 2.7893 32.6936 3.00336L33.2974 3.45065C32.7522 4.19503 32.1744 4.9259 31.5753 5.62884C31.3756 5.86296 31.4037 6.21458 31.6378 6.41415C31.8719 6.61366 32.2235 6.58573 32.4231 6.35154C33.1619 5.48482 33.8692 4.57681 34.5252 3.65283C34.7007 3.40549 34.6462 3.06323 34.4026 2.88274L33.5919 2.28223L36.8795 1.17597L36.7789 4.64321L36.1935 4.20952C36.0733 4.12046 35.9223 4.08318 35.7746 4.10694C35.6268 4.13034 35.4947 4.21227 35.4079 4.33415C31.7536 9.46984 26.8607 13.7124 21.2579 16.6035C15.651 19.4968 9.35258 21.026 3.04365 21.026H1.67119C1.36399 21.026 1.11413 20.7761 1.11413 20.4689C1.11413 20.1617 1.36399 19.9119 1.67119 19.9119H3.0438C8.27396 19.9119 13.3649 18.8726 18.1751 16.8229C22.9488 14.7887 27.1966 11.8671 30.8004 8.13934C31.0143 7.91808 31.0083 7.56549 30.7871 7.35166C30.5659 7.13782 30.2132 7.14383 29.9994 7.36503C28.6031 8.80945 27.1067 10.1288 25.5185 11.319C25.5158 11.319 25.5133 11.3186 25.5106 11.3186H21.0663C20.3545 11.3186 19.7755 11.8977 19.7755 12.6094V14.8576C19.2784 15.105 18.7749 15.342 18.265 15.5683V14.7776C18.265 14.0658 17.686 13.4868 16.9743 13.4868H12.5299C11.8181 13.4868 11.2392 14.0658 11.2392 14.7776V17.8946C10.7378 18.007 10.2343 18.1092 9.72864 18.2007V16.5448C9.72864 15.833 9.14959 15.2539 8.43788 15.2539H3.99341C3.28163 15.2539 2.70265 15.833 2.70265 16.5448V18.7978H1.67119C0.749659 18.7978 0 19.5475 0 20.4689C0 21.3904 0.749659 22.1401 1.67119 22.1401H2.70258V27.9056H2.4028C1.10573 27.9056 0.0505071 28.9608 0.0505071 30.2578V31.7843C0.0505071 32.3118 0.479669 32.741 1.00717 32.741H36.9685C37.496 32.741 37.9252 32.3118 37.9252 31.7843V30.2578C37.9252 28.9608 36.8699 27.9056 35.5729 27.9056ZM20.8896 12.6093C20.8896 12.5119 20.9688 12.4327 21.0663 12.4327H23.9494C22.9614 13.096 21.9407 13.7116 20.8896 14.2794V12.6093ZM12.3532 14.7776C12.3532 14.6802 12.4324 14.6009 12.5298 14.6009H16.9741C17.0716 14.6009 17.1507 14.6802 17.1507 14.7776V16.0418C15.5797 16.6805 13.9788 17.2098 12.3531 17.6274V14.7776H12.3532ZM3.99341 16.3681H8.43773C8.53518 16.3681 8.61436 16.4473 8.61436 16.5448V18.3849C7.0326 18.6217 5.43182 18.7565 3.8167 18.7892V16.5447C3.8167 16.4473 3.89596 16.3681 3.99341 16.3681ZM32.1686 9.92217H34.0471C34.1445 9.92217 34.2238 10.0014 34.2238 10.0989V27.9056H29.426V12.4658C30.378 11.6598 31.2938 10.8112 32.1686 9.92217ZM21.7689 17.5936C23.1176 16.8977 24.4256 16.125 25.6873 15.2827V21.215C25.6873 21.5228 25.9367 21.7721 26.2443 21.7721C26.552 21.7721 26.8014 21.5228 26.8014 21.215V14.513C27.3137 14.1461 27.817 13.7667 28.3118 13.3766V27.9056H26.8015V23.5905C26.8015 23.2828 26.552 23.0334 26.2444 23.0334C25.9367 23.0334 25.6873 23.2828 25.6873 23.5905V27.9056H20.8896V18.0326C21.1843 17.8895 21.4778 17.7439 21.7689 17.5936ZM12.3532 21.0583C13.9796 20.6773 15.5827 20.1975 17.1508 19.6216V27.9056H12.3532V21.0583ZM18.265 19.1938C18.7728 18.9903 19.2763 18.7766 19.7755 18.5527V27.9056H18.265V19.1938ZM3.8167 22.1318C5.42187 22.1009 7.02457 21.9744 8.61436 21.7542V23.6006C8.61436 23.9083 8.86378 24.1577 9.17142 24.1577C9.47907 24.1577 9.72849 23.9083 9.72849 23.6006V21.5848C10.2338 21.5006 10.7372 21.4062 11.239 21.3031V27.9056H9.72849V25.9762C9.72849 25.6684 9.47907 25.4191 9.17142 25.4191C8.86378 25.4191 8.61436 25.6684 8.61436 25.9762V27.9056H3.8167V22.1318ZM36.8111 31.6269H1.16463V30.2578C1.16463 29.5752 1.72006 29.0197 2.4028 29.0197H35.5729C36.2556 29.0197 36.8111 29.5752 36.8111 30.2578V31.6269Z" fill="black"/>
</svg>
