<svg width="33" height="32" viewBox="0 0 33 32" fill="none" xmlns="http://www.w3.org/2000/svg">
<path d="M32.3606 12.2429L16.3404 0.480103L0.637695 12.2429L16.4992 23.0602L32.3606 12.2429Z" fill="#FF8B59"/>
<path d="M27.7476 22.8414H5.38419C4.30526 22.8414 3.43066 22.2744 3.43066 21.5748V6.80298C3.43066 6.10344 4.30526 5.53638 5.38419 5.53638H27.7476C28.8265 5.53638 29.7011 6.10344 29.7011 6.80298V21.5749C29.7011 22.2744 28.8265 22.8414 27.7476 22.8414Z" fill="#DCEAFF"/>
<path d="M32.48 12.6284V28.5742C32.48 29.6796 31.5839 30.5749 30.4793 30.5749H2.51925C1.41462 30.5749 0.518555 29.6796 0.518555 28.5742V12.6353C0.518555 12.3415 0.837377 12.1585 1.09164 12.3062L16.1701 21.0823C16.1895 21.0934 16.2096 21.1038 16.2304 21.1128C16.4216 21.1994 16.6441 21.1897 16.8284 21.0823L17.536 20.6707L31.9131 12.3027C32.1647 12.1565 32.48 12.3374 32.48 12.6284Z" fill="#FEE07D"/>
<path d="M19.5845 15.4044H13.5498C13.2138 15.4044 12.9414 15.132 12.9414 14.796V10.8547C12.9414 10.5187 13.2138 10.2463 13.5498 10.2463H19.5846C19.9206 10.2463 20.1929 10.5187 20.1929 10.8547V14.796C20.1929 15.132 19.9205 15.4044 19.5845 15.4044Z" fill="#7C5757"/>
<path d="M32.7108 11.9686L30.2213 9.45115V7.10899C30.2213 5.74539 29.1119 4.63599 27.7482 4.63599H5.38486C4.02126 4.63599 2.91179 5.74539 2.91179 7.10899V9.26282L0.269575 11.9891C0.259117 11.9999 0.249489 12.0112 0.240138 12.0226C0.0869955 12.1862 0 12.4019 0 12.6356V28.5747C0 29.9643 1.13053 31.0948 2.52024 31.0948H30.4798C31.8694 31.0948 33 29.9643 33 28.5747V12.6283C33 12.3713 32.8943 12.136 32.7108 11.9686ZM31.3246 12.0445L30.2213 12.6867V10.9287L31.3246 12.0445ZM2.91179 12.7642L1.66725 12.0398L2.91179 10.7557V12.7642ZM31.961 28.5747C31.961 29.3914 31.2965 30.0559 30.4798 30.0559H2.52024C1.70348 30.0559 1.03896 29.3914 1.03896 28.5747V12.8762L15.9093 21.5314C15.9095 21.5316 15.9098 21.5317 15.9101 21.5318L27.3413 28.1853C27.4236 28.2331 27.5134 28.2559 27.6022 28.2559C27.7811 28.2559 27.9552 28.1634 28.0516 27.9976C28.1959 27.7497 28.1119 27.4317 27.8639 27.2873L17.5327 21.2741L26.6825 15.9486C26.9305 15.8043 27.0145 15.4862 26.8702 15.2383C26.7258 14.9903 26.4077 14.9063 26.1599 15.0506L16.5681 20.6335C16.5261 20.6579 16.4742 20.6579 16.4322 20.6335L15.4236 20.0465C15.4235 20.0465 15.4233 20.0463 15.4231 20.0463L3.95075 13.3689V7.10899C3.95075 6.31827 4.59407 5.67495 5.38486 5.67495H27.7482C28.5389 5.67495 29.1822 6.31827 29.1822 7.10899V13.2914L27.997 13.9813C27.749 14.1256 27.665 14.4436 27.8093 14.6915C27.9537 14.9396 28.2717 15.0234 28.5196 14.8792L29.9482 14.0477C29.9502 14.0467 29.952 14.0454 29.954 14.0444L31.961 12.8762V28.5747Z" fill="black"/>
<path d="M13.5488 16.2109H19.5836C20.2055 16.2109 20.7115 15.7049 20.7115 15.083V11.1418C20.7115 10.5199 20.2055 10.0139 19.5836 10.0139H18.2926V9.45935C18.2926 8.78569 17.7446 8.23767 17.0709 8.23767H16.0614C15.3878 8.23767 14.8397 8.78569 14.8397 9.45935V10.0139H13.5487C12.9268 10.0139 12.4209 10.5199 12.4209 11.1418V15.083C12.421 15.705 12.9269 16.2109 13.5488 16.2109ZM15.8788 9.45935C15.8788 9.35864 15.9608 9.27663 16.0615 9.27663H17.071C17.1717 9.27663 17.2537 9.35864 17.2537 9.45935V10.0139H15.8788V9.45935ZM13.4599 11.1418C13.4599 11.0927 13.4998 11.0529 13.5488 11.0529H19.5836C19.6327 11.0529 19.6725 11.0927 19.6725 11.1418V15.083C19.6725 15.1321 19.6327 15.1719 19.5836 15.1719H13.5488C13.4998 15.1719 13.4599 15.1321 13.4599 15.083V11.1418Z" fill="black"/>
</svg>
